<?xml version="1.0" encoding="utf-8" ?>
<svg xmlns="http://www.w3.org/2000/svg" xmlns:xlink="http://www.w3.org/1999/xlink" width="1024" height="1024">
	<path fill="#2A130E" d="M0 -0L314.41 0L332.88 0L342.105 0L388.624 0L412.614 0L438.724 0L466.855 0L499.597 0L606.968 0L632.693 0L1024 0L1024 162.015L1024 196.599L1024 375.189L1024 434.122L1024 447.189L1024 537.749L1024 562.639L1024 662.57L1024 686.679L1024 742.064L1024 761.356L1024 841.229L1024 861.055L1024 1024L-0 1024L0 845.879L0 844.373L0 824.998L0 743.097L0 720.986L0 667.219L0 587.872L0 493.596L0 424.67L0 393.155L0 380.076L0 362.084L0 190.384L0 162.48L0 132.459L0 45.6787L0 -0Z"/>
	<path fill="#CA9268" d="M335.185 101.363C333.748 105.596 329.031 108.78 326.171 112.213C322.867 116.178 320.183 120.32 318.105 125.05C317.803 125.736 317.936 125.46 317.508 126.176L315.98 120.757C319.548 113.144 328.334 106.024 335.185 101.363Z"/>
	<path fill="#B76A44" d="M309.879 221.024L322.05 233.87L317.116 237.382L311.57 241.323L309.879 221.024Z"/>
	<path fill="#887663" d="M718.876 665.699C715.811 664.074 712.024 654.666 710.238 651.305C714.519 651.469 720.917 651.106 724.814 652.75C726.605 655.798 726.763 661.761 727.31 665.33L718.876 665.699Z"/>
	<path fill="#5C5A58" d="M715.105 158.281L723.798 166.074L718.276 174.104C717.996 174.48 717.241 175.68 716.87 175.865C716.289 176.155 715.623 176.233 715 176.417C711.118 175.773 706.983 172.966 703.442 171.207C707.834 166.841 711.877 163.733 715.105 158.281Z"/>
	<path fill="#4FC8F8" d="M412.614 0L438.724 0L423.336 16.0384L412.614 0Z"/>
	<path fill="#786658" d="M752.848 231.563L756.76 219.694C768.346 225.497 778.998 229.473 788.644 238.653C780.468 238.404 771.951 236.889 764 235.014C760.253 234.131 756.286 233.319 752.848 231.563Z"/>
	<path fill="#5C5A58" d="M445.776 17.6119L464.937 20.1603C461.94 23.6833 460.17 30.164 459.139 34.6751L433.635 32.5349C437.208 27.0684 441.37 22.3994 445.776 17.6119Z"/>
	<path fill="#46454A" d="M460 638.226L496.347 623.962C500.669 622.193 505.047 619.125 509.5 618.033C513.435 619.17 519.5 626.593 522.199 630.011C513.329 630.324 503.825 629.912 495.041 631.084C487.697 632.064 480.171 634.35 473.043 636.347L465.258 638.639C464.488 638.87 462.75 639.59 462 639.526C461.675 639.498 460.36 638.46 460 638.226Z"/>
	<path fill="#CA9268" d="M704.127 504.301C698.724 503.122 693.245 502.394 688.344 499.658C683.809 497.127 680.057 492.363 678.768 487.319C678.214 485.154 677.953 479.884 679.218 477.984C681.168 475.055 687.076 474.745 690.408 474.136C690.942 479.377 691.229 484.529 694.092 489.133C695.709 491.731 698.169 493.91 700.306 496.083C701.634 497.435 703.168 498.747 703.964 500.5C704.523 501.733 705.272 502.838 704.409 504.065L704.127 504.301Z"/>
	<path fill="#393B45" d="M286.897 323.824L287.181 324.194C289.168 326.834 290.071 330.768 292.062 333.116C293.043 334.272 297.299 336.025 298.839 336.523L289.063 379.675C287.947 377.47 287.521 374.068 287.008 371.607C283.67 355.578 283.989 339.886 286.897 323.824Z"/>
	<path fill="#FAB383" d="M644.678 256.107L657.442 254.591L657.299 255.436C656.778 258.784 656.534 261.885 658.796 264.644L661.991 267.802C649.648 277.595 640.49 287.665 631.397 300.587C631.551 297.494 632.873 294.81 633.932 291.93L637.96 280.274L642.289 265.092L640.939 264.212C641.607 264.045 642.301 263.738 642.95 263.5L644.678 256.107Z"/>
	<path fill="#887663" d="M439.527 577.221L443.304 564.989C443.848 563.24 444.338 560.765 445.38 559.25C445.876 558.528 446.713 557.819 447.523 557.473C448.831 556.913 451.223 556.758 452.492 557.491C453.334 557.978 453.372 558.415 453.787 559.25C452.584 567.423 444.697 569.895 451.236 578.528C456.106 584.958 462.679 591.529 469.002 596.522L485.456 608.426L476.751 611.897C471.82 609.439 466.441 606.843 462.048 603.486C453.024 596.592 446.245 586.218 439.527 577.221Z"/>
	<path fill="#DC9F72" d="M738.145 177.996C740.898 173.584 742.89 168.655 747.185 165.47C751.341 162.389 756.913 160.342 761.581 158.022C769.562 154.057 777.917 149.093 786.357 146.276C790.576 144.869 796.121 143.372 800.576 144.205C803.518 144.755 805.068 146.45 806.761 148.769C801.911 152.759 796.271 155.154 790.514 157.552L757.556 169.811C751.813 172.029 745.031 174.6 739.941 178.039L738.145 177.996Z"/>
	<path fill="#887663" d="M531.657 612.575L523.516 603.943L563.271 585.495C568.185 582.693 574.558 576.593 576.86 571.313C577.54 569.755 577.658 567.972 578.145 566.347C578.499 565.166 578.45 565.074 579.5 564.516L580.847 565.578C581.324 572.956 580.242 581.102 579.511 588.483C577.609 589.153 576.079 590.724 574.528 591.978C572.036 593.994 569.534 595.814 566.797 597.488C559.814 601.758 552.094 604.807 544.445 607.664C541.583 608.733 533.123 610.561 531.657 612.575Z"/>
	<path fill="#DC9F72" d="M324.633 661.336L392.294 603.748C392.923 603.336 392.742 603.459 393.648 603.684C396.154 604.307 397.4 607.073 398.641 609.12L369.078 635.301C357.886 645.283 347.364 655.892 337.675 667.339L324.633 661.336Z"/>
	<path fill="#B76A44" d="M412.219 138.938C414.042 141.6 413.927 143.027 414.452 146.026C414.71 149.212 415.107 152.265 415.891 155.367C418.121 170.923 431.114 185.568 443.332 194.658C452.452 201.442 463.186 206.279 474.381 208.209C474.082 211.091 473.927 216.022 472.583 218.507C472.129 219.346 471.859 219.212 471 219.492C467.548 218.864 464.136 217.34 460.875 216.058C447.271 210.708 434.823 202.106 425.852 190.486C414.281 175.496 409.742 157.6 412.219 138.938Z"/>
	<path fill="#4FC8F8" d="M755.137 106.748L755.54 111.5C757.088 112.396 791.04 111.407 795.71 111.134C796.548 115.064 797.598 118.584 799.625 122.091C800.477 123.566 801.731 124.847 802.486 126.339C799.093 126.339 795.486 126.19 792.13 126.712C777.937 128.919 764.653 136.63 752.15 143.292L754.395 126.165C755.07 119.671 755.15 113.268 755.137 106.748Z"/>
	<path fill="#887663" d="M360.51 574.646C366.032 572.447 371.906 572.353 377.75 571.976L395.338 570.774C404.446 570.125 413.726 568.939 422.859 569.052L414.114 601.551C410.324 596.857 403.504 587.045 397.102 586.25C393.851 585.846 390.217 586.382 387.452 588.246C384.661 589.446 382.198 591.34 379.71 593.061C378.35 591.994 377.403 589.504 376.478 588C372.529 581.583 367.27 577.673 360.51 574.646Z"/>
	<path fill="#988D77" d="M439.527 577.221C446.245 586.218 453.024 596.592 462.048 603.486C466.441 606.843 471.82 609.439 476.751 611.897L447.097 623.207C442.084 625.083 436.086 628.433 430.75 627.999C430.025 627.585 429.31 627.199 428.897 626.427C427.27 623.393 429.881 615.438 430.663 612.038L439.527 577.221Z"/>
	<path fill="#887663" d="M257.389 170.857C262.268 180.798 268.556 188.828 278.412 194.32C284.402 197.659 291.174 199.889 297.592 202.26C295.922 204.124 294.119 206.003 292.851 208.171C288.954 214.835 288.942 222.736 289.334 230.231C289.61 235.533 290.98 240.657 292.855 245.613C290.121 244.09 287.913 241.657 285.75 239.431C281.609 235.168 277.699 230.69 274.251 225.842C263.735 211.057 254.222 189.38 257.389 170.857Z"/>
	<path fill="#887663" d="M522.199 630.011L548.398 653.806L547.815 653.756C543.351 653.304 539.031 651.056 534.852 649.51L513.291 642.224C509.701 640.928 505.932 638.866 502.25 638.024C500.998 637.738 499.747 637.935 498.5 638.128L497.589 638.263C493.387 638.93 489.199 640.074 485.057 641.045C481.381 641.906 477.582 642.402 474.007 643.648C470.641 644.822 466.965 647.012 463.932 648.884L464.882 663.524L457.379 663.672L453.75 663.701C453.614 663.678 452.906 663.438 452.755 663.25C451.506 661.695 450.506 659.369 449.446 657.642L441.688 645.438L460 638.226C460.36 638.46 461.675 639.498 462 639.526C462.75 639.59 464.488 638.87 465.258 638.639L473.043 636.347C480.171 634.35 487.697 632.064 495.041 631.084C503.825 629.912 513.329 630.324 522.199 630.011Z"/>
	<path fill="#F5C68D" d="M599.899 380.443L602.622 380.52C599.802 404.425 601.677 429.064 617.048 448.705C621.483 454.371 626.748 458.947 632.397 463.344C617.051 470.54 601.2 477.501 584.825 482.066L593.821 468.824C597.346 462.497 599.797 455.384 601.407 448.341C602.15 445.09 602.848 442.215 601.85 438.928C596.012 419.699 596.232 400.249 599.588 380.576L599.899 380.443Z"/>
	<path fill="#46454A" d="M286.897 323.824C291.291 296.404 305.908 266.364 329.468 250.51L330.68 249.845L298.839 336.523C297.299 336.025 293.043 334.272 292.062 333.116C290.071 330.768 289.168 326.834 287.181 324.194L286.897 323.824Z"/>
	<path fill="#887663" d="M294.391 60.042C297.426 58.9641 303.245 56.0338 306.413 56.6176C307.865 58.4304 307.827 61.5065 308.258 63.75C310.135 73.5357 316.551 80.3331 324.186 86.1371C314.58 94.2593 305.299 102.034 298.334 112.646C296.026 116.162 294.052 119.747 292.189 123.517C290.976 125.972 289.873 129.6 287.833 131.463C284.489 134.516 276.384 135.614 272.037 136.559C274.798 131.623 279.407 128.476 283.007 124.25C285.026 121.88 286.124 116.663 287.118 113.704C293.216 95.5503 296.405 79.1958 294.391 60.042Z"/>
	<path fill="#46454A" d="M620.769 406.859C623.525 408.319 628.373 411.403 631.384 411.785C633.451 412.048 637.243 410.821 639.25 410.208L645.518 408.043C648.194 422.195 653.107 436.36 665.496 444.945C675.466 451.854 686.634 452.216 698.11 449.901L700.264 449.457C697.646 451.772 694.878 452.974 691.624 454.166C688.767 455.213 685.878 455.99 682.858 456.412C668.104 458.478 651.069 453.933 639.382 444.655C627.531 435.248 622.527 421.5 620.769 406.859Z"/>
	<path fill="#887663" d="M598.726 578.8L642.848 593.94L616.833 615.532L592.878 635.042L598.726 578.8Z"/>
	<path fill="#988D77" d="M531.657 612.575C533.123 610.561 541.583 608.733 544.445 607.664C552.094 604.807 559.814 601.758 566.797 597.488C569.534 595.814 572.036 593.994 574.528 591.978C576.079 590.724 577.609 589.153 579.511 588.483L571.924 647.83C557.135 637.32 544.3 625.536 531.657 612.575Z"/>
	<path fill="#887663" d="M752.848 231.563C756.286 233.319 760.253 234.131 764 235.014C771.951 236.889 780.468 238.404 788.644 238.653C794.454 244.086 799.896 249.856 804.473 256.38C795.451 256.58 786.616 257.388 777.658 258.444C773.63 258.919 769.3 259.143 765.385 260.171C762.234 260.998 759.153 262.764 756.229 264.182C753.264 265.622 750.071 266.943 747.296 268.72L735.182 260.838C742.888 251.815 748.242 242.459 752.848 231.563Z"/>
	<path fill="#F5C68D" d="M313.082 354.889L322.575 366.295L322.741 366.635L318.701 391.56C318.212 395.25 317.502 399.109 317.444 402.833C317.385 406.584 318.276 410.143 318.861 413.82C321.135 428.121 324.948 442.641 330.527 456.015C331.879 459.256 333.225 463.034 335.266 465.895C340.543 473.289 350.985 479.819 358.75 484.457C362.221 486.53 367.77 488.225 370.111 491.484C366.323 490.476 362.523 488.736 358.96 487.124C342.889 479.853 329.215 468.712 319.827 453.684C301.119 423.736 305.586 387.606 313.082 354.889Z"/>
	<path fill="#CA9268" d="M755.131 412.028L770.539 372.52C779.99 370.268 785.921 365.047 793.596 359.527C797.406 356.787 801.213 354.413 804.587 351.09C807.531 348.191 810.046 344.816 812.495 341.5C814.7 338.516 817.221 333.763 821.037 332.688C824.505 331.71 828.638 331.465 832.238 331.25C844.778 330.5 855.779 332.4 866.729 338.618C865.732 340.746 864.391 341.894 862.654 343.376C855.392 343.67 848.319 342.241 841.084 342.63C821.865 343.663 803.322 356.23 790.725 370.061C786.073 375.17 782.279 381.219 779.434 387.5C777.521 391.721 776.189 396.203 773.45 400L773.434 400.694C773.356 403.194 773.357 405.057 771.495 406.898C769.347 409.023 758.786 412.135 755.579 412.064L755.131 412.028Z"/>
	<path fill="#CA9268" d="M398.641 609.12L408.335 624.763C393.378 637.818 378.277 651.071 364.376 665.25C361.08 668.613 356.826 672.383 354.343 676.326C349.103 672.501 343.517 670.071 337.675 667.339C347.364 655.892 357.886 645.283 369.078 635.301L398.641 609.12Z"/>
	<defs>
		<linearGradient id="gradient_0" gradientUnits="userSpaceOnUse" x1="408.17691" y1="237.75722" x2="315.60724" y2="252.38191">
			<stop offset="0" stop-color="#ED9771"/>
			<stop offset="1" stop-color="#FDCFA6"/>
		</linearGradient>
	</defs>
	<path fill="url(#gradient_0)" d="M324.358 316.878C329.996 299.191 337.459 282.035 344.213 264.757L350.277 248.186L363.842 218.255C366.361 212.874 368.366 207.377 371.549 202.312C378.45 191.33 387.054 182.579 396.31 173.625L404.269 192.084L403.468 191.466C402.567 190.748 402.377 190.269 401.875 189.248L400.685 187.276C399.228 188.623 397.822 190.666 396.242 191.732C393.343 193.685 390.729 197.924 388.475 200.675C388.948 201.92 390.233 202.821 390.013 204.1C389.309 203.533 388.88 203.172 388.02 202.858L376.475 218.019C372.454 223.043 368.262 228.152 365.085 233.781C361.947 239.34 359.597 245.891 357.175 251.824L340.196 299.061C339.016 302.88 337.183 307.244 336.595 311.157L336.196 311.307C334.061 311.958 331.964 312.653 330.009 313.75C328.353 314.68 326.218 316.631 324.358 316.878Z"/>
	<path fill="#DC9F72" d="M473.788 239.232C478.083 239.029 482.887 238.868 486.081 235.543C489.344 232.148 490.163 227.251 491.292 222.834C501.986 231.753 516.399 246.352 531.5 244.925C537.754 244.334 543.173 241.149 547.058 236.312C549.452 233.332 551.246 229.853 553.123 226.533C577.118 249.029 605.491 257.615 637.829 256.55L644.678 256.107L642.95 263.5C642.301 263.738 641.607 264.045 640.939 264.212C620.456 263.153 600.629 260.845 580.939 254.887L562.788 248.478C561.686 248.027 554.457 244.557 553.584 244.761C552.637 244.981 549.963 247.335 549.089 247.989C547.281 249.342 545.258 250.408 543.117 251.138C528.132 256.248 507.838 248.763 494.5 241.533C490.584 239.41 486.099 240.146 481.75 240.108C479.022 240.085 476.465 239.714 473.788 239.232Z"/>
	<path fill="#988D77" d="M464.882 663.524L463.932 648.884C466.965 647.012 470.641 644.822 474.007 643.648C477.582 642.402 481.381 641.906 485.057 641.045C489.199 640.074 493.387 638.93 497.589 638.263L498.5 638.128C499.747 637.935 500.998 637.738 502.25 638.024C505.932 638.866 509.701 640.928 513.291 642.224L534.852 649.51C539.031 651.056 543.351 653.304 547.815 653.756L548.398 653.806L561.444 663.925L464.882 663.524Z"/>
	<path fill="#CA9268" d="M584.348 664.855L655.222 604.904L662.688 617.996C659.736 619.806 657.711 623.5 655.568 626.232L642.633 642.607L626.246 662.272C623.349 665.627 619.527 669.171 617.211 672.906C615.045 671.338 612.476 669.033 609.828 668.485C606.106 667.714 602.459 666.549 598.705 665.917C594.083 665.138 589.04 665.157 584.348 664.855Z"/>
	<defs>
		<linearGradient id="gradient_1" gradientUnits="userSpaceOnUse" x1="401.1254" y1="86.747513" x2="410.99817" y2="40.95573">
			<stop offset="0" stop-color="#A87357"/>
			<stop offset="1" stop-color="#BD8A66"/>
		</linearGradient>
	</defs>
	<path fill="url(#gradient_1)" d="M394.981 62.9296C393.872 62.1611 392.667 61.2603 391.313 61.0161C388.512 60.5109 385.248 61.3938 382.5 61.9949C372.903 64.0948 363.489 67.9515 354.368 71.5676C350.782 72.9893 345.144 76.0811 341.25 74.9209C339.882 74.5131 338.398 73.3605 337.155 72.6314C330.955 68.9947 328.203 65.7905 324.802 59.5463C338.424 59.2175 352.222 62.0451 365.855 60.8856C369.707 60.558 373.591 59.8713 377.391 59.1875C380.137 58.6934 383.174 58.3083 385.441 56.5226C387.377 54.9975 388.998 52.4486 390.622 50.5526L435.318 50.5008C442.36 50.5077 450.025 49.9087 457.003 50.6998C467.724 51.9153 478.71 54.8782 489.069 57.8609L486.341 61.6712C477.701 64.0708 466.93 63.3572 457.935 63.8401L427.449 66.3801L395.978 71.7626C396.844 68.2676 396.472 66.1444 394.981 62.9296Z"/>
	<path fill="#B76A44" d="M394.981 62.9296C398.445 63.0841 401.366 64.521 404.75 65.1022L405.41 65.2288C411.972 66.4256 420.101 66.12 426.75 65.5664C427.447 66.1361 427.294 65.813 427.449 66.3801L395.978 71.7626C396.844 68.2676 396.472 66.1444 394.981 62.9296Z"/>
	<path fill="#B76A44" d="M704.042 193.921C709.283 196.582 738.284 210.09 739.39 213C738.374 222.299 734.062 231.9 726.705 237.848L724.054 239.882C722.253 237.463 720.276 234.347 717 233.968C715.492 233.793 714.027 233.91 712.619 234.501C708.11 236.395 704.258 239.931 699.99 242.313C694.339 245.466 688.018 247.536 681.992 249.862C682.631 242.984 684.043 234.982 679.347 229.151C678.006 227.486 675.398 226.079 673.25 226.002C671.433 225.938 669.678 226.294 667.938 226.768C670.608 223.84 674.466 221.451 677.621 219.044C685.438 213.082 694.051 206.553 700.188 198.789L704.042 193.921Z"/>
	<path fill="#CA9268" d="M806.761 148.769C809.554 156.884 808.544 164.504 804.759 172.144C798.778 184.215 787.35 195.233 774.447 199.432C767.589 201.664 759.837 202.573 753.245 199.182L750.917 197.94C743.982 194.531 736.528 192.647 732.729 185.467L738.145 177.996L739.941 178.039C745.031 174.6 751.813 172.029 757.556 169.811L790.514 157.552C796.271 155.154 801.911 152.759 806.761 148.769Z"/>
	<path fill="#D2743F" d="M739.941 178.039L740.91 178.223C750.537 179.753 771.949 164.193 779.143 172.975C780.62 174.778 781.268 176.862 780.973 179.179C780.503 182.863 777.437 185.826 774.558 187.887C770.98 190.449 766.612 192.405 762.419 193.718C758.622 194.907 754.262 195.736 750.917 197.94C743.982 194.531 736.528 192.647 732.729 185.467L738.145 177.996L739.941 178.039Z"/>
	<path fill="#B76A44" d="M325.574 184.126L347.746 172.777C350.474 171.242 353.781 169.725 355.9 167.4C361.316 161.456 364.921 153.015 368.711 146C375.403 133.612 386.202 121.559 397.539 113.272C400.769 110.912 403.582 108.768 407.47 107.613C401.088 116.472 397.26 125.369 395.319 136.111C394.917 138.337 394.483 148.653 393.903 149.566C393.271 150.56 390.876 152.067 389.903 152.886C386.868 155.444 383.941 158.056 381.262 160.996L374.75 168.785C371.546 172.373 367.999 175.634 364.919 179.337C358.243 187.363 352.657 196.373 348.478 205.941C345.773 212.136 343.897 218.656 341.481 224.964C332.673 218.241 323.344 208.772 318.17 198.856C321.559 195.983 326.107 192.779 326.386 187.871C326.456 186.647 325.935 185.284 325.574 184.126Z"/>
	<path fill="#CA9268" d="M332.88 0L342.105 0L388.624 0L401.811 16.9988C404.969 21.5931 407.76 25.1896 412.009 28.795C413.028 29.6594 414.397 30.192 414.25 31.5687C413.434 32.2173 412.508 33.0415 411.475 33.292C408.46 34.0228 404.644 33.7337 401.495 33.9042L372.873 35.2636L348.352 36.4745C344.405 36.6826 339.26 37.4786 335.435 36.5802C335.062 36.2738 335.018 36.2698 334.689 35.8112C333.518 34.175 333.223 31.671 332.871 29.75C331.033 19.7361 331.33 10.0286 332.88 0Z"/>
	<path fill="#DC9F72" d="M332.88 0L342.105 0C337.24 9.35223 334.796 18.4842 337.961 28.9113L340.75 35.7962C339.822 36.7202 336.82 36.4323 335.435 36.5802C335.062 36.2738 335.018 36.2698 334.689 35.8112C333.518 34.175 333.223 31.671 332.871 29.75C331.033 19.7361 331.33 10.0286 332.88 0Z"/>
	<path fill="#D2743F" d="M372.873 35.2636C371.379 34.6634 372.154 34.726 371.349 33.75C369.796 31.8656 366.851 30.1228 365.015 28.3005C361.316 24.6294 358.417 19.4172 358.489 14.101C358.529 11.1391 359.764 8.61896 361.976 6.64753C364.094 4.75906 368.55 1.73102 371.321 1.49306C374.625 1.20936 378.423 3.8326 381.012 5.65682C385.585 8.87983 395.568 17.018 401.376 17.0147L401.811 16.9988C404.969 21.5931 407.76 25.1896 412.009 28.795C413.028 29.6594 414.397 30.192 414.25 31.5687C413.434 32.2173 412.508 33.0415 411.475 33.292C408.46 34.0228 404.644 33.7337 401.495 33.9042L372.873 35.2636Z"/>
	<path fill="#DC9F72" d="M408.335 624.763L432.386 663.75L432 664.484L430.173 664.92C417.546 665.297 401.219 665.142 391.856 674.912C383.903 683.211 383.058 694.964 383.284 705.875C377.223 704.34 372.281 702.662 365.966 703.563L365.895 702.603C365.497 697.59 364.193 692.853 362.991 687.995C362.013 684.041 357.514 678.756 354.343 676.326C356.826 672.383 361.08 668.613 364.376 665.25C378.277 651.071 393.378 637.818 408.335 624.763Z"/>
	<path fill="#DC9F72" d="M335.185 101.363C342.779 96.2827 350.842 92.7684 359.172 89.1127L386.442 77.3405C388.22 79.5011 389.317 81.379 388.971 84.278C388.647 86.9857 386.395 89.3816 384.297 90.9504C378.887 94.995 372.507 97.9283 366.85 101.672C359.37 106.622 337.298 123.164 335.488 132C334.173 138.422 336.675 144.174 330.499 148.75C325.367 152.552 318.632 154.552 312.87 157.194C306.253 160.23 299.731 163.745 293.5 167.503C291.622 168.635 289.132 169.768 287.665 171.402C288.501 173.115 289.319 174.866 290.483 176.387C291.702 177.979 293.704 179.305 293.821 181.314L291.509 180.489C284.066 177.621 277.722 171.433 274.558 164.134C273.612 161.951 271.846 157.643 272.75 155.347C276.545 153.265 279.603 153.332 283.673 153.227C285.73 153.173 288.261 151.61 290.103 150.736C294.638 148.584 298.968 145.985 303.281 143.421C307.35 141.003 311.876 138.398 315.218 134.989C317.862 132.293 317.609 129.651 317.508 126.176C317.936 125.46 317.803 125.736 318.105 125.05C320.183 120.32 322.867 116.178 326.171 112.213C329.031 108.78 333.748 105.596 335.185 101.363Z"/>
	<path fill="#988D77" d="M747.296 268.72C750.071 266.943 753.264 265.622 756.229 264.182C759.153 262.764 762.234 260.998 765.385 260.171C769.3 259.143 773.63 258.919 777.658 258.444C786.616 257.388 795.451 256.58 804.473 256.38C811.909 266.58 815.301 278.707 813.357 291.261C812.301 298.086 811.362 306.358 808.956 312.802C803.75 326.741 789.532 339.529 777.78 347.966L775.416 349.529C775.754 338.228 776.706 327.224 774.606 316C771.032 296.898 762.761 280.905 747.296 268.72Z"/>
	<path fill="#5C5A58" d="M620.769 406.859C619.907 403.198 620.151 398.153 620.282 394.366C621.124 369.99 629.207 343.556 640.528 322C651.913 300.321 668.71 279.883 692.96 272.581C705.07 268.934 717.105 272.192 727.955 277.96C724.544 278.241 720.975 278.397 717.662 279.283C702.96 283.214 689.447 294.963 679.739 306.328C658.183 331.565 641.552 367.828 644.642 401.701L645.518 408.043L639.25 410.208C637.243 410.821 633.451 412.048 631.384 411.785C628.373 411.403 623.525 408.319 620.769 406.859Z"/>
	<path fill="#786658" d="M464.937 20.1603C483.925 23.5823 502.769 27.7006 520.53 35.4732C533.594 41.1906 546.446 47.9949 558.396 55.7975L574.675 66.9724L620.5 93.5453L636.355 104.27C639.46 106.588 642.338 109.115 645.604 111.225C651.688 115.154 658.522 118.326 664.772 122.085C675.45 128.507 685.513 135.653 695.553 143.013C702.146 147.847 709.102 152.733 715.105 158.281C711.877 163.733 707.834 166.841 703.442 171.207L677.974 158.513C672.617 155.781 666.818 153.148 661.812 149.821C655.161 145.399 650.34 139.217 644.543 133.863L624.588 116.978C609.454 104.237 594.21 91.5897 577.78 80.5314C541.902 56.3842 501.787 41.238 459.139 34.6751C460.17 30.164 461.94 23.6833 464.937 20.1603Z"/>
	<path fill="#49EDFD" d="M372.488 512.095L373.13 512.483C375.587 513.895 379.411 514.395 382.178 515.087C406.466 521.16 432.005 523.028 456.974 522.413L456.95 542.342C450.741 540.38 444.071 537.923 437.814 541.052C435.08 542.419 433.154 544.723 431.532 547.25C430.633 548.651 429.79 550.662 428.25 551.491C425.086 553.194 378.084 552.409 370.477 553.265C357.19 554.759 343.443 559.768 330.86 564.128C327.118 565.424 323.112 566.384 319.519 568.039L316.753 569.745C315.849 570.238 313.393 571.453 312.405 571.478C310.79 571.518 306.896 569.344 305.307 568.709L289.897 563.264L253.807 553.059L274.669 533.207L280.323 538.182C292.24 547.326 311.053 551.292 325.75 549.518C329.484 549.067 332.916 548.192 336.461 546.94C351.253 541.713 361.368 530.223 367.977 516.427C369.265 513.737 369.775 513.061 372.488 512.095Z"/>
	<path fill="#F5C68D" d="M474.64 523.594C479.149 522.916 483.938 523.19 488.5 522.998C494.801 522.734 501.271 521.979 507.5 521.02C516.18 519.683 524.972 518.334 533.521 516.307C536.392 515.626 539.11 514.438 541.966 513.706C545.652 512.76 549.522 512.235 553.289 511.703L551.542 527.676C552.095 535.868 552.904 543.806 554.715 551.831C555.634 555.903 557.338 560.153 557.89 564.25C558.039 565.355 558.029 566.169 557.281 567.042C555.223 569.444 550.55 571.163 547.684 572.614C536.243 578.404 524.608 583.545 512.555 587.92C507.487 589.76 502.283 591.821 496.975 592.828C493.399 591.002 471.336 576.128 470.462 573.393C469.598 570.688 471.987 565.157 472.676 562.354C473.413 559.357 473.914 556.316 474.413 553.273C475.881 543.595 476.936 533.203 474.64 523.594Z"/>
	<path fill="#DC9F72" d="M474.64 523.594C479.149 522.916 483.938 523.19 488.5 522.998C494.801 522.734 501.271 521.979 507.5 521.02C516.18 519.683 524.972 518.334 533.521 516.307C536.392 515.626 539.11 514.438 541.966 513.706C545.652 512.76 549.522 512.235 553.289 511.703L551.542 527.676C534.807 531.692 518.91 537.531 502.798 543.505C493.57 546.926 484.008 551.105 474.413 553.273C475.881 543.595 476.936 533.203 474.64 523.594Z"/>
	<path fill="#49EDFD" d="M651.552 473.574C655.204 473.299 658.2 473.969 661.726 474.856C661.034 479.879 660.505 484.93 661.075 490C662.367 501.503 671.032 509.47 679.611 516.133C668.017 527.578 658.37 540.375 653.305 556.038C651.245 562.406 650.29 568.615 649.345 575.212L611.446 563.501C607.925 562.009 600.911 559.963 598.25 557.465C595.597 554.976 594.178 552.084 590.824 550.258C586.89 548.118 582.255 546.598 578.092 544.935C575.662 543.964 573.076 543.273 571.569 541C570.942 532.419 570.38 524.077 570.935 515.463C571.135 512.351 571.154 509.037 572.153 506.071C572.583 505.561 572.875 505.181 573.476 504.862C577.522 502.709 583.314 501.566 587.72 500.066L629.608 485.264C633.401 483.711 637.214 481.855 640.75 479.784C644.354 477.673 647.686 475.214 651.552 473.574Z"/>
	<path fill="#988D77" d="M292.855 245.613L297.393 254.709C295.074 259.851 291.21 264.687 288.207 269.492C286.263 272.602 281.391 282.863 278.271 284.181C275.176 285.488 262.214 279.908 258.908 278.4C236.609 268.231 219.443 249.952 210.944 226.943C206.767 215.635 205.171 203.575 204.857 191.575C204.233 167.759 208.826 144.585 218.881 122.939C230.064 98.8641 244.312 80.88 268.837 69.662C277.043 65.9083 285.903 63.1235 294.391 60.042C296.405 79.1958 293.216 95.5503 287.118 113.704C286.124 116.663 285.026 121.88 283.007 124.25C279.407 128.476 274.798 131.623 272.037 136.559C266.339 138.019 259.118 138.985 255.742 144.43C252.495 149.665 254.173 159.214 255.675 164.945C256.181 166.876 257.056 168.912 257.389 170.857C254.222 189.38 263.735 211.057 274.251 225.842C277.699 230.69 281.609 235.168 285.75 239.431C287.913 241.657 290.121 244.09 292.855 245.613Z"/>
	<path fill="#F56665" d="M727.955 277.96C740.906 284.447 749.765 295.388 754.252 309.068C758.078 320.733 758.046 332.943 756.676 345C754.445 364.63 748.849 382.871 739.843 400.482C733.278 413.322 725.053 425.105 715.611 435.98C711.124 441.147 706.517 446.431 700.264 449.457L698.11 449.901C686.634 452.216 675.466 451.854 665.496 444.945C653.107 436.36 648.194 422.195 645.518 408.043L644.642 401.701C641.552 367.828 658.183 331.565 679.739 306.328C689.447 294.963 702.96 283.214 717.662 279.283C720.975 278.397 724.544 278.241 727.955 277.96Z"/>
	<path fill="#FEFEFE" d="M685.022 323.077C686.475 323.292 687.748 323.486 688.868 324.516C690.399 325.924 690.798 327.488 690.472 329.5C689.797 333.665 687.27 338.322 686.183 342.573C682.004 358.918 678.459 376.63 679.023 393.553C690.184 385.24 696.932 372.503 702.025 359.845C703.362 356.521 704.132 352.248 706.037 349.25C706.99 347.75 708.274 346.754 710 346.367C711.679 345.992 713.544 346.228 714.965 347.232C716.213 348.113 717.143 349.386 717.497 350.88C717.893 352.55 717.469 355.044 717.344 356.759L716.229 370.067C715.695 379.323 715.786 388.331 717.189 397.497C725.25 385.568 730.291 371.42 733.75 357.514C734.785 353.352 734.977 347.814 736.874 343.992C738.017 341.689 739.498 340.936 741.852 340.169L742.363 340.008C743.918 340.656 745.306 341.277 746.382 342.652C748.46 345.307 747.853 349.141 747.529 352.25C745.891 367.994 737.057 392.865 727.285 405.25C724.702 408.523 721.134 411.936 716.75 412.237C714.009 412.425 711.611 411.359 709.616 409.533C703.714 404.131 703.621 392.984 703.169 385.516C698.257 393.25 691.088 402.582 682.25 405.925C679.379 407.01 675.67 407.041 672.891 405.653C669.912 404.165 668.183 401.01 667.221 397.965C663.177 385.168 672.603 339.344 679.128 327.75C680.612 325.112 682.16 323.911 685.022 323.077Z"/>
	<path fill="#988D77" d="M466.855 0L499.597 0L606.968 0C618.336 10.748 629.989 20.6963 643 29.4383C658.716 39.9975 676.032 48.8315 692.536 58.1257L718.917 73.4425C722.222 75.4547 726.274 77.4199 729.053 80.1095C733.687 84.5961 735.771 91.7834 736.549 98C738.349 112.377 736.971 127.965 733.497 141.979C732.272 146.92 730.813 152.266 728.676 156.887C727.394 160.127 725.556 163.077 723.798 166.074L715.105 158.281C709.102 152.733 702.146 147.847 695.553 143.013C685.513 135.653 675.45 128.507 664.772 122.085C658.522 118.326 651.688 115.154 645.604 111.225C642.338 109.115 639.46 106.588 636.355 104.27L620.5 93.5453L574.675 66.9724L558.396 55.7975C546.446 47.9949 533.594 41.1906 520.53 35.4732C502.769 27.7006 483.925 23.5823 464.937 20.1603L445.776 17.6119C448.636 14.7646 451.674 11.6855 454.9 9.27716L466.855 0Z"/>
	<path fill="#46454A" d="M466.855 0L499.597 0C496.923 4.81159 494.959 10.7131 493.433 16.0016C504.867 18.7752 516.322 22.5416 526.948 27.6255C544.722 36.1297 560.938 47.0283 577.655 57.3375L602.733 72.5739L628.043 87.25C635.488 91.9393 642.179 97.6445 649.539 102.38C658.102 107.89 667.508 112.258 676.202 117.649C694.646 129.085 712.294 142.662 728.676 156.887C727.394 160.127 725.556 163.077 723.798 166.074L715.105 158.281C709.102 152.733 702.146 147.847 695.553 143.013C685.513 135.653 675.45 128.507 664.772 122.085C658.522 118.326 651.688 115.154 645.604 111.225C642.338 109.115 639.46 106.588 636.355 104.27L620.5 93.5453L574.675 66.9724L558.396 55.7975C546.446 47.9949 533.594 41.1906 520.53 35.4732C502.769 27.7006 483.925 23.5823 464.937 20.1603L445.776 17.6119C448.636 14.7646 451.674 11.6855 454.9 9.27716L466.855 0Z"/>
	<path fill="#887663" d="M466.855 0L499.597 0C496.923 4.81159 494.959 10.7131 493.433 16.0016C489.603 14.8066 485.486 14.151 481.554 13.3119C472.774 11.4384 463.857 9.9539 454.9 9.27716L466.855 0Z"/>
	<path fill="#CA9268" d="M489.069 57.8609L498.375 60.6224C519.911 67.7938 540.33 77.2023 559.563 89.2753C582.581 103.724 603.867 121.683 624.813 138.926C630.883 143.923 635.877 150.349 642.081 155.088C654.116 164.282 668.025 171.284 680.856 179.303C684.299 181.455 686.967 184.306 690.217 186.654C694.262 189.575 699.571 191.667 704.042 193.921L700.188 198.789C694.051 206.553 685.438 213.082 677.621 219.044C674.466 221.451 670.608 223.84 667.938 226.768C664.455 228.45 661.38 230.952 657.934 232.748C647.363 238.256 635.471 238.412 623.868 237.399C610.189 236.204 594.506 232.701 582.495 225.814C572.58 220.128 564.456 212.399 557.193 203.644C555.317 201.384 553.221 199.011 551.75 196.455C550.388 194.088 549.493 191.102 547.649 189.074C546.235 187.52 544.7 187.029 542.649 186.959C540.356 186.88 538.521 187.348 536.84 188.97C535.438 190.325 535.036 191.627 535.047 193.532C535.093 201.384 534.525 208.092 536.797 215.771C535.727 218.118 535.262 220.522 533.811 222.75C532.782 224.331 531.38 225.618 529.483 225.97C522.604 227.248 505.059 210.191 500.316 204.835C497.168 201.281 494.041 195.881 490.145 193.291C487.735 191.689 485.052 191.312 482.25 192.026C479.337 192.768 477.647 195.069 476.149 197.482L474.381 208.209C463.186 206.279 452.452 201.442 443.332 194.658C431.114 185.568 418.121 170.923 415.891 155.367C415.107 152.265 414.71 149.212 414.452 146.026C413.927 143.027 414.042 141.6 412.219 138.938C413.223 134.919 414.332 131.238 415.874 127.396C416.989 124.943 418.185 122.707 419.634 120.431C421.794 116.051 428.031 110.832 428.608 106.301C428.901 103.999 428.297 102.291 426.751 100.583C425.447 99.1426 423.726 98.0965 421.75 98.0279C416.364 97.8408 411.076 104.127 407.47 107.613C403.582 108.768 400.769 110.912 397.539 113.272C386.202 121.559 375.403 133.612 368.711 146C364.921 153.015 361.316 161.456 355.9 167.4C353.781 169.725 350.474 171.242 347.746 172.777L325.574 184.126C320.276 177.189 315.184 181.132 308.416 182.377C303.618 183.259 298.405 183.029 293.821 181.314C293.704 179.305 291.702 177.979 290.483 176.387C289.319 174.866 288.501 173.115 287.665 171.402C289.132 169.768 291.622 168.635 293.5 167.503C299.731 163.745 306.253 160.23 312.87 157.194C318.632 154.552 325.367 152.552 330.499 148.75C336.675 144.174 334.173 138.422 335.488 132C337.298 123.164 359.37 106.622 366.85 101.672C372.507 97.9283 378.887 94.995 384.297 90.9504C386.395 89.3816 388.647 86.9857 388.971 84.278C389.317 81.379 388.22 79.5011 386.442 77.3405C390.06 75.9159 393.196 74.5676 395.978 71.7626L427.449 66.3801L457.935 63.8401C466.93 63.3572 477.701 64.0708 486.341 61.6712L489.069 57.8609Z"/>
	<path fill="#B76A44" d="M489.069 57.8609L498.375 60.6224C494.425 61.8012 490.391 61.3583 486.341 61.6712L489.069 57.8609Z"/>
	<path fill="#DC9F72" d="M573.491 152.04C574.947 151.954 576.51 151.786 577.938 152.147C580.986 152.917 583.847 155.399 585.268 158.192C586.309 160.238 586.638 162.504 585.708 164.675C584.791 166.816 582.623 168.051 580.613 168.971C579.057 169.023 577.345 169.177 575.805 168.933C573.111 168.506 570.464 166.714 568.946 164.479C567.727 162.684 567.145 160.434 567.696 158.292C568.526 155.061 570.702 153.542 573.491 152.04Z"/>
	<path fill="#DC9F72" d="M465.978 131.076C467.804 130.875 469.642 130.711 471.383 131.422C473.262 132.19 474.828 133.898 475.585 135.765C476.884 138.969 478.241 146.203 476.842 149.413C475.593 152.278 473.072 153.543 470.273 154.498C469.441 154.519 468.572 154.54 467.75 154.393C465.063 153.914 462.511 152.032 461.056 149.75C458.952 146.451 458.845 141.825 459.873 138.139C460.823 134.737 463.029 132.818 465.978 131.076Z"/>
	<path fill="#DC9F72" d="M353.038 115.589C354.256 115.535 355.419 115.582 356.612 115.842C359.056 116.374 361.059 117.948 362.331 120.07C364.196 123.18 364.265 126.424 363.262 129.861C361.829 134.774 359.634 137.587 355.202 140.024C353.692 140.399 351.821 140.661 350.295 140.265C348.246 139.732 346.288 137.972 345.236 136.166C343.803 133.704 344.432 130.002 345.197 127.433L347.234 120.598C348.381 117.685 350.298 116.775 353.038 115.589Z"/>
	<path fill="#DC9F72" d="M529.492 132.15C532.908 132.411 535.661 132.814 538.554 134.876C542.243 137.505 543.67 140.722 544.4 145.062C545.183 149.723 545.955 154.241 542.898 158.277C540.447 161.515 537.681 162.336 533.795 162.808C531.098 162.435 528.873 161.889 526.5 160.46C522.219 157.881 518.721 152.97 517.728 148.027C517.026 144.528 517.711 140.69 519.763 137.762C522.262 134.198 525.288 132.817 529.492 132.15Z"/>
	<path fill="#B76A44" d="M476.149 197.482C473.275 194.072 472.127 188.537 471.426 184.25L471.297 183.491C470.701 179.774 470.601 175.573 472.989 172.432C474.635 170.268 477.309 168.782 480.033 168.596C482.332 168.438 484.696 169.446 486.361 170.985C491.915 176.123 490.975 184.583 494.063 190.942C495.514 193.929 498.306 196.636 500.736 198.861C509.921 207.271 524.283 214.585 536.797 215.771C535.727 218.118 535.262 220.522 533.811 222.75C532.782 224.331 531.38 225.618 529.483 225.97C522.604 227.248 505.059 210.191 500.316 204.835C497.168 201.281 494.041 195.881 490.145 193.291C487.735 191.689 485.052 191.312 482.25 192.026C479.337 192.768 477.647 195.069 476.149 197.482Z"/>
	<path fill="#DC9F72" d="M419.634 120.431L420.024 120.264C421.211 119.743 422.189 119.159 423.267 118.442C426.044 116.594 429.502 115.882 432.788 116.714C436.271 117.597 439.396 120.631 441.048 123.725C445.838 132.697 446.904 149.332 443.642 158.901C442.194 163.149 439.831 166.894 435.608 168.803C433.332 169.833 429.837 169.992 427.5 169.028C423.444 167.356 420.428 163.844 418.477 160C417.686 158.441 416.901 156.788 415.891 155.367C415.107 152.265 414.71 149.212 414.452 146.026C413.927 143.027 414.042 141.6 412.219 138.938C413.223 134.919 414.332 131.238 415.874 127.396C416.989 124.943 418.185 122.707 419.634 120.431Z"/>
	<path fill="#CA9268" d="M415.874 127.396C415.883 133.712 414.631 139.724 414.452 146.026C413.927 143.027 414.042 141.6 412.219 138.938C413.223 134.919 414.332 131.238 415.874 127.396Z"/>
	<path fill="#FEE4B3" d="M390.013 204.1C390.233 202.821 388.948 201.92 388.475 200.675C390.729 197.924 393.343 193.685 396.242 191.732C397.822 190.666 399.228 188.623 400.685 187.276L401.875 189.248C402.377 190.269 402.567 190.748 403.468 191.466L404.269 192.084C407.46 196.222 410.158 200.578 413.593 204.561C421.422 213.64 430.835 221.168 441.109 227.301C445.018 229.634 449.513 232.238 453.929 233.401L467.875 238.468L473.788 239.232C476.465 239.714 479.022 240.085 481.75 240.108C486.099 240.146 490.584 239.41 494.5 241.533C507.838 248.763 528.132 256.248 543.117 251.138C545.258 250.408 547.281 249.342 549.089 247.989C549.963 247.335 552.637 244.981 553.584 244.761C554.457 244.557 561.686 248.027 562.788 248.478L580.939 254.887C600.629 260.845 620.456 263.153 640.939 264.212L642.289 265.092L637.96 280.274L633.932 291.93C632.873 294.81 631.551 297.494 631.397 300.587L626.946 308.174C617.576 325.734 609.798 344.377 605.429 363.854L602.622 380.52L599.899 380.443L599.588 380.576C596.232 400.249 596.012 419.699 601.85 438.928C602.848 442.215 602.15 445.09 601.407 448.341C599.797 455.384 597.346 462.497 593.821 468.824L584.825 482.066L558.363 490.133L553.289 511.703C549.522 512.235 545.652 512.76 541.966 513.706C539.11 514.438 536.392 515.626 533.521 516.307C524.972 518.334 516.18 519.683 507.5 521.02C501.271 521.979 494.801 522.734 488.5 522.998C483.938 523.19 479.149 522.916 474.64 523.594C472.681 517.175 471.569 510.676 470.905 504.006C439.851 503.019 407.845 503.498 377.91 493.98L370.111 491.484C367.77 488.225 362.221 486.53 358.75 484.457C350.985 479.819 340.543 473.289 335.266 465.895C333.225 463.034 331.879 459.256 330.527 456.015C324.948 442.641 321.135 428.121 318.861 413.82C318.276 410.143 317.385 406.584 317.444 402.833C317.502 399.109 318.212 395.25 318.701 391.56L322.741 366.635L322.575 366.295L313.082 354.889L324.358 316.878C326.218 316.631 328.353 314.68 330.009 313.75C331.964 312.653 334.061 311.958 336.196 311.307L336.595 311.157C337.183 307.244 339.016 302.88 340.196 299.061L357.175 251.824C359.597 245.891 361.947 239.34 365.085 233.781C368.262 228.152 372.454 223.043 376.475 218.019L388.02 202.858C388.88 203.172 389.309 203.533 390.013 204.1Z"/>
	<path fill="#F5C68D" d="M377.91 493.98C381.169 493.104 384.743 493.975 388.02 494.539L401.814 496.737L432.004 500.255C453.512 501.715 474.713 501.825 496.206 499.905C510.535 498.626 524.701 496.27 538.874 493.877C540.782 493.555 542.265 493.611 544.164 493.962C532.169 497.814 520.585 499.49 508.181 501.167C501.171 502.114 493.896 503.693 486.876 504.157C481.619 504.504 476.175 504.124 470.905 504.006C439.851 503.019 407.845 503.498 377.91 493.98Z"/>
	<path fill="#2A130E" d="M379.119 278.109C382.084 277.884 384.988 277.678 387.794 278.838C392.104 280.62 395.545 284.305 397.092 288.715C398.374 292.368 397.474 297.774 395.817 301.114C393.537 305.712 389.94 308.25 385.203 309.885C382.222 310.7 378.658 310.789 375.723 309.74C371.991 308.407 369.6 305.883 368.062 302.25C366.219 297.899 366.609 291.805 368.404 287.5C370.582 282.276 374.132 280.069 379.119 278.109Z"/>
	<path fill="#DC9F72" d="M390.013 204.1C390.233 202.821 388.948 201.92 388.475 200.675C390.729 197.924 393.343 193.685 396.242 191.732C397.822 190.666 399.228 188.623 400.685 187.276L401.875 189.248C402.377 190.269 402.567 190.748 403.468 191.466L404.269 192.084C407.46 196.222 410.158 200.578 413.593 204.561C421.422 213.64 430.835 221.168 441.109 227.301C445.018 229.634 449.513 232.238 453.929 233.401C453.009 235.049 452.179 236.71 450.862 238.083C446.654 236.247 441.405 235.542 436.953 233.851C424.07 228.96 411.231 221.4 400.023 213.484C398.574 212.461 397.423 211.064 395.952 210.122C393.359 208.46 391.485 206.859 390.013 204.1Z"/>
	<path fill="#2A130E" d="M553.411 275.555C557.551 275.343 561.189 275.354 564.941 277.395C568.968 279.585 572.036 283.265 573.315 287.668C574.524 291.829 574.14 297.274 571.932 301.048C569.454 305.283 565.831 306.932 561.31 308.157C556.791 308.695 552.032 308.325 547.895 306.296C544.374 304.568 541.868 301.881 540.733 298.094C539.381 293.582 540.065 287.605 542.411 283.507C545.012 278.964 548.572 276.93 553.411 275.555Z"/>
	<path fill="#B76A44" d="M544.164 493.962L558.363 490.133L553.289 511.703C549.522 512.235 545.652 512.76 541.966 513.706C539.11 514.438 536.392 515.626 533.521 516.307C524.972 518.334 516.18 519.683 507.5 521.02C501.271 521.979 494.801 522.734 488.5 522.998C483.938 523.19 479.149 522.916 474.64 523.594C472.681 517.175 471.569 510.676 470.905 504.006C476.175 504.124 481.619 504.504 486.876 504.157C493.896 503.693 501.171 502.114 508.181 501.167C520.585 499.49 532.169 497.814 544.164 493.962Z"/>
	<path fill="#FAB383" d="M336.595 311.157C346.437 309.59 355.652 309.92 364.093 316.013C370.787 320.845 374.695 329.258 376.064 337.25L376.191 337.951C376.895 342.211 376.88 347.469 375.682 351.617L375.497 352.317C373.758 358.646 367.827 366.737 362.052 369.894C352.738 374.983 344.378 376.574 334.049 373.271C329.756 371.898 326.039 369.724 322.741 366.635L322.575 366.295L313.082 354.889L324.358 316.878C326.218 316.631 328.353 314.68 330.009 313.75C331.964 312.653 334.061 311.958 336.196 311.307L336.595 311.157Z"/>
	<path fill="#DC9F72" d="M324.358 316.878C326.218 316.631 328.353 314.68 330.009 313.75C331.964 312.653 334.061 311.958 336.196 311.307C334.297 321.157 330.792 330.875 328.417 340.657L324.801 356.466C324.135 359.651 323.765 363.279 322.575 366.295L313.082 354.889L324.358 316.878Z"/>
	<path fill="#B76A44" d="M453.929 233.401L467.875 238.468L467.18 239.406C465.034 242.868 463.459 247.569 461.577 251.305L439.506 298.192C434.406 310.251 429.705 322.214 427.183 335.087C426.569 338.22 425.606 341.933 426.25 345.098C427.031 346.332 427.565 347.05 429 347.623C431.568 348.649 434.998 348.816 437.734 349.254L453.281 352.017C457.374 352.709 462.7 353.351 466.463 355.085C468.729 356.13 470.72 358.077 471.446 360.508C472.014 362.409 471.902 365.255 470.896 367C469.6 369.248 467.626 370.835 465.103 371.457L464.5 371.596L463.96 371.74C459.991 372.692 453.464 370.996 449.439 370.379C439.39 368.837 425.222 368.125 416.572 362.411C411.784 359.249 409.011 354.418 407.921 348.856C407.085 344.588 407.435 339.797 407.971 335.5C410.027 319.003 417.301 303.602 424.119 288.629C432.091 271.121 440.363 254.256 450.862 238.083C452.179 236.71 453.009 235.049 453.929 233.401Z"/>
	<path fill="#FAB383" d="M599.588 380.576C590.996 380.111 583.144 378.238 575.727 373.67C567.948 368.88 561.501 360.634 559.507 351.683L559.305 350.75C558.367 346.559 558.179 342.019 558.85 337.764C560.607 326.621 564.699 315.009 574.292 308.252C580.426 303.932 585.959 300.911 593.397 299.305L595.808 298.809C607.228 297.093 617.985 301.405 626.946 308.174C617.576 325.734 609.798 344.377 605.429 363.854L602.622 380.52L599.899 380.443L599.588 380.576Z"/>
	<path fill="#DC9F72" d="M599.899 380.443L599.942 379.959C600.519 376.314 601.451 372.521 602.537 369C602.87 367.921 603.194 366.161 603.737 365.25C603.981 364.84 605.021 364.191 605.429 363.854L602.622 380.52L599.899 380.443Z"/>
	<path fill="#67291E" d="M547.462 369.019C548.835 368.975 550.295 368.87 551.657 369.07C553.889 369.398 555.939 371.056 557.137 372.909C559.71 376.886 558.667 383.58 557.655 388.029C553.753 405.187 542.217 416.762 527.604 425.867C501.494 442.136 467.915 442.631 438.698 435.795C420.573 431.554 401.388 424.007 391.136 407.613C388.086 400.975 386.271 395.467 387.667 388.098C388.125 385.681 389.423 383.662 391.588 382.399C393.519 381.271 395.955 381.334 398.051 381.896C403.334 383.313 403.983 394.734 406.634 399.313C408.921 403.262 413.183 405.821 417.093 407.907C424.651 411.941 432.386 414.916 440.699 416.975C466.595 423.387 494.858 423.416 518.192 409.173C527.062 403.759 533.96 397.454 537.961 387.674C539.414 384.122 540.14 380.441 541.106 376.748C542.047 373.15 543.671 371.189 546.861 369.356L547.462 369.019Z"/>
	<defs>
		<linearGradient id="gradient_2" gradientUnits="userSpaceOnUse" x1="158.18832" y1="-4.5696158" x2="145.70595" y2="418.31464">
			<stop offset="0" stop-color="#51B8F6"/>
			<stop offset="1" stop-color="#48F9FF"/>
		</linearGradient>
	</defs>
	<path fill="url(#gradient_2)" d="M0 -0L314.41 0C312.395 13.3743 313.431 25.7932 316.922 38.7668C304.469 40.3551 293.001 43.4194 281.005 47.0657C273.714 49.282 266.506 51.2789 259.465 54.25C244.272 60.6619 230.726 70.6642 220.624 83.75C205.014 103.97 193.494 128.33 188.442 153.406C187.148 159.827 186.666 166.18 185.772 172.635C184.634 192.551 186.416 211.454 191.865 230.663C201.11 258.543 218.528 279.557 244.913 292.707C253.765 297.119 262.772 300.118 272.289 302.673C266.353 323.814 263.548 345.352 266.412 367.262C267.622 376.512 269.798 385.894 274.442 394.08C276.392 397.516 278.909 400.605 282.314 402.691C283.614 403.488 285.848 404.343 286.762 405.556C288.013 407.215 287.623 412.331 287.818 414.44C288.263 419.264 289.407 424.162 289.522 428.99C285.951 423.721 283.646 416.849 280.537 411.165C272.532 396.533 262.192 383.57 250.19 372.035C224.4 347.248 188.388 327.313 152.172 325.635C143.44 325.23 134.407 326.587 125.735 327.622C106.882 329.873 88.2352 335.165 71.8754 344.993C66.9005 347.982 37.0717 370.16 35.166 370.221C34.4721 370.243 32.9457 369.334 32.3251 369.015C29.5408 367.588 26.7691 366.03 23.7988 365.018C15.9037 362.329 8.25628 361.927 0 362.084L0 190.384L0 162.48L0 132.459L0 45.6787L0 -0Z"/>
	<path fill="#FEFEFE" d="M0 162.48L15.7199 162.472C22.6575 162.484 30.6879 161.316 36.0413 166.757C38.9301 169.693 40.2899 173.141 40.0789 177.285C39.8996 180.808 38.1341 184.22 35.5116 186.549C30.3521 191.132 22.8815 190.398 16.4576 190.405L0 190.384L0 162.48Z"/>
	<path fill="#FEFEFE" d="M191.865 230.663L108.563 230.718L87.7147 230.695C86.1983 230.681 82.9596 231.052 81.6221 230.62C80.3685 230.214 78.2983 228.085 77.2968 227.114C70.594 220.621 67.0391 211.857 67.0008 202.513C66.9679 194.497 69.9818 186.386 75.7017 180.693C80.0023 176.411 85.32 173.408 91.2513 172.101C95.7328 171.113 100.444 171.32 105 171.363L121.847 171.546L185.772 172.635C184.634 192.551 186.416 211.454 191.865 230.663Z"/>
	<path fill="#FEFEFE" d="M0 45.6787L36.0176 47.2736C46.0684 47.6494 57.8071 46.8182 67.4823 49.652C73 51.2682 77.9519 54.3688 81.7996 58.6387C85.4519 62.6916 87.559 67.2946 89.1104 72.4767C102.964 72.9944 118.153 71.4044 128.554 82.4646C134.646 88.9428 137.409 96.6615 137.056 105.5C136.747 113.26 133.121 121.012 127.364 126.23C124.796 128.556 120.876 131.579 117.476 132.231C114.114 132.876 110.002 132.474 106.557 132.473L83.9109 132.469L0 132.459L0 45.6787Z"/>
	<defs>
		<linearGradient id="gradient_3" gradientUnits="userSpaceOnUse" x1="830.07977" y1="-1.1161644" x2="827.93317" y2="370.87146">
			<stop offset="0" stop-color="#51B8F6"/>
			<stop offset="1" stop-color="#49F3FE"/>
		</linearGradient>
	</defs>
	<path fill="url(#gradient_3)" d="M632.693 0L1024 0L1024 162.015L1024 196.599L1024 375.189L1019.78 368.177C1009.08 351.559 991.467 340.794 972.288 336.783C951.503 332.437 931.085 333.998 911.792 343.229C907.435 345.314 903.433 348.008 899.412 350.665C894.985 341.814 890.023 334.05 882.334 327.651C866.349 314.349 846.946 313.002 827.116 314.696C829.246 305.789 830.282 296.512 830.666 287.364C830.865 282.63 831.067 277.494 830.2 272.835C829.105 266.954 827.044 261.897 824.518 256.486C819.822 248.78 814.5 242.251 808.533 235.499C801.385 227.413 795.02 220.842 785.83 214.998C789.771 212.424 793.907 210.272 797.75 207.514C803.174 203.62 807.624 199.172 812.168 194.328C818.017 186.59 822.341 178.754 824.775 169.306C827.701 157.946 826.301 146.795 820.449 136.695C814.807 130.768 810.495 128.276 802.486 126.339C801.731 124.847 800.477 123.566 799.625 122.091C797.598 118.584 796.548 115.064 795.71 111.134C791.04 111.407 757.088 112.396 755.54 111.5L755.137 106.748C755.089 101.146 754.435 95.2835 753.108 89.8356C751.418 82.9011 747.531 73.0292 742.62 67.8845C738.831 63.9163 733.712 61.5209 729.011 58.8338L716.389 51.1816L687.487 34.8537C668.31 24.1356 649.998 13.6827 632.693 0Z"/>
	<path fill="#FEFEFE" d="M1024 162.015L1024 196.599L983.268 196.976C976.499 197.014 968.99 197.651 962.283 196.931C960.298 196.718 958.046 195.982 956.262 195.109C951.943 192.998 948.868 189.072 947.488 184.511C946.228 180.345 946.946 175.496 949.001 171.719C951.098 167.864 954.846 164.874 959.033 163.585L959.75 163.374C963.179 162.322 966.695 162.451 970.249 162.393L985.097 162.238L1024 162.015Z"/>
	<path fill="#FEFEFE" d="M812.168 194.328L867.079 195.454C875.247 195.659 884.061 194.754 892.029 196.656C897.878 198.052 903.423 201.048 907.58 205.431C913.481 211.653 916.305 219.628 915.967 228.158C915.645 236.314 911.928 243.804 905.974 249.281C902.064 252.878 897.13 255.426 891.938 256.55C882.655 258.561 872.155 257.351 862.693 257.116L824.518 256.486C819.822 248.78 814.5 242.251 808.533 235.499C801.385 227.413 795.02 220.842 785.83 214.998C789.771 212.424 793.907 210.272 797.75 207.514C803.174 203.62 807.624 199.172 812.168 194.328Z"/>
	<path fill="#FEFEFE" d="M716.389 51.1816C726.014 49.945 736.159 50.419 745.873 50.2536L800.25 49.3715L838.484 48.5528C844.672 48.4657 851.378 47.916 857.5 48.8511L858.365 48.9738C866.28 50.1722 873.526 54.8708 878.194 61.3277C881.76 66.2599 883.314 71.5244 883.998 77.4795L905.137 78.063C909.667 78.2466 914.343 78.1832 918.75 79.3262L919.615 79.5456C927.578 81.6384 934.458 86.6777 938.582 93.8394C942.662 100.923 943.845 109.872 941.53 117.748C939.243 125.528 933.824 132.347 926.652 136.169C922.823 138.209 918.429 139.573 914.089 139.916C907.769 140.417 901.174 139.84 894.842 139.595L868.093 138.809L838.245 137.876C832.496 137.689 826.031 138.042 820.449 136.695C814.807 130.768 810.495 128.276 802.486 126.339C801.731 124.847 800.477 123.566 799.625 122.091C797.598 118.584 796.548 115.064 795.71 111.134C791.04 111.407 757.088 112.396 755.54 111.5L755.137 106.748C755.089 101.146 754.435 95.2835 753.108 89.8356C751.418 82.9011 747.531 73.0292 742.62 67.8845C738.831 63.9163 733.712 61.5209 729.011 58.8338L716.389 51.1816Z"/>
	<path fill="#67291E" d="M866.729 338.618C871.844 342.226 875.993 346.277 879.179 351.701C880.639 354.411 881.948 357.095 882.979 360C885.11 366.001 885.919 371.45 892.736 373.504L893.438 373.484C903.785 373.083 910.978 364.303 919.866 359.941C943.238 348.471 976.166 350.949 995.694 368.91C1007.21 379.499 1012.86 393.658 1013.3 409.155C1013.42 413.571 1012.86 418.176 1012.27 422.556C1012.54 425.421 1012.68 427.983 1015.14 429.89C1016.02 430.578 1017.08 430.845 1018.13 431.2C1020.17 431.895 1022.2 432.922 1024 434.122L1024 447.189L1024 537.749L1024 562.639L1024 662.57C1021.85 664.69 1019.59 666.8 1017.11 668.537C1010.84 672.922 1003.74 674.49 996.191 674.569C994.254 674.589 991.86 674.791 989.974 674.333C987.343 673.692 985.669 669.852 984.414 667.709L978.113 656.934L964.093 634.513C960.748 629.155 958.055 623.209 953.988 618.363L946.843 607.188C942.28 600.203 935.649 588.273 926.895 586.148C921.721 584.891 916.323 588.345 912.178 591.14L872.075 623.763L861.788 632.269C858.392 635.092 855.429 638.013 851.029 639.119C848.241 641.507 832.472 652.867 831.944 655.044C832.282 656.709 830.929 658.394 830.133 659.893C827.46 661.859 824.55 663.671 821.541 665.079C819.959 664.583 818.471 664.596 816.824 664.571C811.593 666.547 808.432 669.593 803.93 672.684C799.772 675.538 795.151 677.857 790.311 679.302C777.563 671.351 761.337 668.708 746.74 666.194C744.308 661.495 741.486 653.938 742.714 648.585C743.193 646.497 744.18 644.56 744.622 642.445C745.238 639.495 744.052 637.312 742.438 634.957C736.739 630.924 730.995 633.17 724.545 633.448C713.429 633.925 703.141 629.125 694.073 623.25C690.894 621.19 687.617 619.265 684.847 616.656C674.825 607.218 668.696 598.075 668.302 583.999C667.79 565.668 674.169 547.418 686.859 534.043C691.93 528.077 697.303 523.669 704.178 520.055C707.955 518.071 709.541 516.139 710.81 512.091C710.276 508.663 709.165 507.421 706.651 505.117C705.825 505.016 704.918 504.578 704.127 504.301L704.409 504.065C705.272 502.838 704.523 501.733 703.964 500.5C703.168 498.747 701.634 497.435 700.306 496.083C698.169 493.91 695.709 491.731 694.092 489.133C691.229 484.529 690.942 479.377 690.408 474.136L692.316 473.73C716.165 467.985 734.096 446.211 746.718 426.436L755.131 412.028L755.579 412.064C758.786 412.135 769.347 409.023 771.495 406.898C773.357 405.057 773.356 403.194 773.434 400.694L773.45 400C776.189 396.203 777.521 391.721 779.434 387.5C782.279 381.219 786.073 375.17 790.725 370.061C803.322 356.23 821.865 343.663 841.084 342.63C848.319 342.241 855.392 343.67 862.654 343.376C864.391 341.894 865.732 340.746 866.729 338.618Z"/>
	<path fill="#994D38" d="M812.46 649.392L831.944 655.044C832.282 656.709 830.929 658.394 830.133 659.893C827.46 661.859 824.55 663.671 821.541 665.079C819.959 664.583 818.471 664.596 816.824 664.571C817.017 663.365 818.13 660.64 818.031 659.539C817.992 659.109 817.075 657.653 816.838 657.196L812.46 649.392Z"/>
	<path fill="#B76A44" d="M1009.35 513.546C1012.87 516.813 1013.36 522.656 1014.76 527.066C1015.04 527.961 1015.39 529.661 1015.88 530.359C1017.57 532.78 1021.64 535.789 1024 537.749L1024 562.639C1018.36 562.376 1014.51 563.981 1009.22 565.197C1012.35 547.806 1012.42 530.932 1009.35 513.546Z"/>
	<path fill="#B76A44" d="M762.715 616.833L773.947 627.382C781.646 633.38 789.352 638.636 798.085 643.054C802.778 645.428 807.692 647.205 812.46 649.392L816.838 657.196C817.075 657.653 817.992 659.109 818.031 659.539C818.13 660.64 817.017 663.365 816.824 664.571C811.593 666.547 808.432 669.593 803.93 672.684C799.772 675.538 795.151 677.857 790.311 679.302C777.563 671.351 761.337 668.708 746.74 666.194C744.308 661.495 741.486 653.938 742.714 648.585C743.193 646.497 744.18 644.56 744.622 642.445C745.238 639.495 744.052 637.312 742.438 634.957C744.053 634.579 745.606 633.328 746.999 632.425C753.099 628.12 758.37 622.91 762.715 616.833Z"/>
	<path fill="#994D38" d="M762.715 616.833L773.947 627.382L765.021 630.09C760.891 631.556 752.573 635.661 748.377 633.33L746.999 632.425C753.099 628.12 758.37 622.91 762.715 616.833Z"/>
	<path fill="#B76A44" d="M1009.22 565.197C1014.51 563.981 1018.36 562.376 1024 562.639L1024 662.57C1021.85 664.69 1019.59 666.8 1017.11 668.537C1010.84 672.922 1003.74 674.49 996.191 674.569C994.254 674.589 991.86 674.791 989.974 674.333C987.343 673.692 985.669 669.852 984.414 667.709L978.113 656.934L964.093 634.513L973.904 627.434C993.772 610.521 1003.49 590.263 1009.22 565.197Z"/>
	<path fill="#994D38" d="M964.093 634.513L973.904 627.434C973.485 633.022 973.489 637.953 974.651 643.476C975.538 647.691 978.551 652.692 978.113 656.934L964.093 634.513Z"/>
	<path fill="#B76A44" d="M706.651 505.117C710.739 505.446 712.306 507.254 714.882 510.075L727.5 504.524L729.021 503.966C735.15 501.545 736.311 493.642 738.634 488.109C743.7 476.042 750.256 464.271 757.719 453.516L764.365 444.435C766.319 441.994 768.77 439.505 769.984 436.616C770.327 444.911 771.196 452.026 775.251 459.47C770.928 464.409 765.783 468.511 761.489 473.5C745.798 491.729 737.75 513.343 734.804 536.983C731.642 562.354 739.623 588.18 755.368 608.119L762.715 616.833C758.37 622.91 753.099 628.12 746.999 632.425C745.606 633.328 744.053 634.579 742.438 634.957C736.739 630.924 730.995 633.17 724.545 633.448C713.429 633.925 703.141 629.125 694.073 623.25C690.894 621.19 687.617 619.265 684.847 616.656C674.825 607.218 668.696 598.075 668.302 583.999C667.79 565.668 674.169 547.418 686.859 534.043C691.93 528.077 697.303 523.669 704.178 520.055C707.955 518.071 709.541 516.139 710.81 512.091C710.276 508.663 709.165 507.421 706.651 505.117Z"/>
	<path fill="#CA9268" d="M710.81 512.091L711.25 510.781C713.159 511.369 714.631 512.1 715.594 513.952C716.423 515.545 716.241 517.455 715.655 519.094C714.999 520.932 713.461 522.598 712.274 524.12L705.992 532.435C693.688 549.394 681.716 571.825 690.7 592.809C694.61 601.942 701.589 609.303 710.555 613.528C713.302 614.822 716.753 615.892 719.063 617.846C721.295 619.733 721.697 621.116 721.369 623.974C719.893 626.093 718.648 627.093 716.053 627.62C708.104 629.237 699.961 624.453 693.604 620.257C689.759 617.719 685.681 613.254 683.041 609.5C675.166 598.301 670.646 584.14 672.785 570.381C674.153 561.579 677.375 553.197 681.323 545.256C683.082 541.718 686.213 537.901 686.859 534.043C691.93 528.077 697.303 523.669 704.178 520.055C707.955 518.071 709.541 516.139 710.81 512.091Z"/>
	<path fill="#D2743F" d="M866.729 338.618C871.844 342.226 875.993 346.277 879.179 351.701C880.639 354.411 881.948 357.095 882.979 360C885.11 366.001 885.919 371.45 892.736 373.504L893.438 373.484C903.785 373.083 910.978 364.303 919.866 359.941C943.238 348.471 976.166 350.949 995.694 368.91C1007.21 379.499 1012.86 393.658 1013.3 409.155C1013.42 413.571 1012.86 418.176 1012.27 422.556C1012.54 425.421 1012.68 427.983 1015.14 429.89C1016.02 430.578 1017.08 430.845 1018.13 431.2C1020.17 431.895 1022.2 432.922 1024 434.122L1024 447.189L1024 537.749C1021.64 535.789 1017.57 532.78 1015.88 530.359C1015.39 529.661 1015.04 527.961 1014.76 527.066C1013.36 522.656 1012.87 516.813 1009.35 513.546C1006.99 501.61 1001.59 489.019 995.352 478.621C992.935 474.593 989.932 470.893 987.802 466.709L988.527 465.573C993.512 457.741 996.686 450.438 994.451 441C991.864 430.078 986.314 416.173 976.413 410.14C967.106 404.469 953.62 401.533 942.971 404.224L942 404.476C938.536 405.345 935.154 406.393 931.938 407.963C920.977 413.313 916.747 423.578 912.972 434.437C896.938 426.094 881.349 422.343 863.25 424.527C859.367 424.995 853.974 426.597 850.25 425.706C847.386 423.661 845.619 418.015 843.726 414.875C837.935 405.266 829.136 398.514 818.214 395.83C807.289 393.144 796.143 394.72 786.57 400.646C778.806 405.452 773.012 414.155 771.035 423.031L770.829 423.993C769.903 428.198 769.977 432.336 769.984 436.616C768.77 439.505 766.319 441.994 764.365 444.435L757.719 453.516C750.256 464.271 743.7 476.042 738.634 488.109C736.311 493.642 735.15 501.545 729.021 503.966L727.5 504.524L714.882 510.075C712.306 507.254 710.739 505.446 706.651 505.117C705.825 505.016 704.918 504.578 704.127 504.301L704.409 504.065C705.272 502.838 704.523 501.733 703.964 500.5C703.168 498.747 701.634 497.435 700.306 496.083C698.169 493.91 695.709 491.731 694.092 489.133C691.229 484.529 690.942 479.377 690.408 474.136L692.316 473.73C716.165 467.985 734.096 446.211 746.718 426.436L755.131 412.028L755.579 412.064C758.786 412.135 769.347 409.023 771.495 406.898C773.357 405.057 773.356 403.194 773.434 400.694L773.45 400C776.189 396.203 777.521 391.721 779.434 387.5C782.279 381.219 786.073 375.17 790.725 370.061C803.322 356.23 821.865 343.663 841.084 342.63C848.319 342.241 855.392 343.67 862.654 343.376C864.391 341.894 865.732 340.746 866.729 338.618Z"/>
	<path fill="#B76A44" d="M1024 447.189L1019.09 447.02C1016.7 446.705 1014.49 445.154 1013.06 443.249C1009.96 439.136 1010.5 432.557 1011.47 427.75C1011.82 426.018 1011.79 424.227 1012.27 422.556C1012.54 425.421 1012.68 427.983 1015.14 429.89C1016.02 430.578 1017.08 430.845 1018.13 431.2C1020.17 431.895 1022.2 432.922 1024 434.122L1024 447.189Z"/>
	<path fill="#B76A44" d="M879.179 351.701C880.639 354.411 881.948 357.095 882.979 360C885.11 366.001 885.919 371.45 892.736 373.504C890.266 376.936 889.297 379.887 889.32 384.071L889.329 385L888.75 385.507C885.841 384.827 883.169 383.413 881.434 380.911C877.93 375.855 878.56 369.45 878.582 363.605C878.598 359.617 878.509 355.645 879.179 351.701Z"/>
	<path fill="#F5C68D" d="M793.868 459.826C789.875 453.494 787.382 446.697 786.656 439.24C786.063 433.136 788.078 424.379 792.156 419.668C795.555 415.741 800.788 413.145 806 412.865C813.854 412.442 818.939 414.566 824.774 419.666C827.236 422.597 829.427 425.557 830.976 429.08C832.874 433.397 834.762 447.107 839.797 447.821C842.156 448.156 846.561 445.673 848.774 444.8C851.765 443.621 854.538 442.85 857.75 442.552C873.712 441.075 887.961 440.902 902.427 448.887C905.728 450.71 910.066 454.492 913.676 455.281C917.956 456.217 922.217 455.669 925.052 452.106C926.778 449.935 927.958 446.731 928.728 444.091C930.92 437.053 932.986 427.1 940.25 423.56C946.193 420.663 956.771 420.779 962.913 423.163C968.993 425.523 972.027 430.234 974.415 436.04C976.445 440.978 978.135 446.553 975.932 451.75C973.56 457.342 968.073 460.04 966.151 466.223C967.034 470.964 969.399 473.297 972.536 476.747C988.307 494.596 994.803 522.388 993.431 545.791C992.637 559.341 989.186 571.826 983.775 584.223C978.301 595.639 972.637 604.431 962.755 612.516C960.05 614.729 957.263 617.05 953.988 618.363L946.843 607.188C942.28 600.203 935.649 588.273 926.895 586.148C921.721 584.891 916.323 588.345 912.178 591.14L872.075 623.763L861.788 632.269C858.392 635.092 855.429 638.013 851.029 639.119L842.438 638.07C813.739 633.314 785.092 618.413 767.987 594.373C754.36 575.221 749.894 552.151 753.845 529.167C757.68 506.854 769.776 484.897 788.421 471.675L795.363 465.912C795.769 463.561 794.803 461.915 793.868 459.826Z"/>
	<path fill="#CA9268" d="M793.868 459.826C795.698 460.818 800.18 461.962 800.706 463.978C801.157 465.71 800.836 467.85 799.8 469.325C798.759 470.808 797.076 472.152 795.25 472.435C792.893 472.801 790.661 472.38 788.421 471.675L795.363 465.912C795.769 463.561 794.803 461.915 793.868 459.826Z"/>
	<path fill="#CA9268" d="M963.421 463.447C964.273 464.615 964.735 465.802 966.151 466.223C967.034 470.964 969.399 473.297 972.536 476.747C970.205 477.358 967.665 477.719 965.25 477.42C962.777 477.113 960.587 475.661 959.266 473.587C958.419 472.256 958.085 471.073 958.433 469.5L963.421 463.447Z"/>
	<path fill="#2A130E" d="M912.095 500.506C913.76 500.487 915.328 500.647 916.87 501.304C918.79 502.123 920.343 503.797 921.025 505.766C922.681 510.545 923.605 523.88 921.181 528.35C919.775 530.943 917.671 532.136 914.927 532.929C913.564 532.874 912.068 532.845 910.75 532.462C908.844 531.909 907.102 530.097 906.196 528.387C903.464 523.233 904.274 510.96 906.257 505.642C907.252 502.973 909.628 501.592 912.095 500.506Z"/>
	<path fill="#2A130E" d="M822.596 498.535L825 498.652C827.242 499.006 829.394 500.343 830.636 502.246C832.653 505.338 833.382 511.441 832.7 515.026L831.009 523.422C829.926 527.525 828.082 529.369 824.469 531.445C822.931 531.519 821.288 531.658 819.795 531.195C817.4 530.453 815.597 528.662 814.604 526.389C812.839 522.35 814.573 514.227 815.237 509.836C815.548 507.781 815.766 505.319 816.609 503.411C817.835 500.638 819.911 499.618 822.596 498.535Z"/>
	<path fill="#DC9F72" d="M776.108 520.124C783.473 518.83 789.821 519.46 796.159 523.803C801.748 527.632 806.679 535.361 807.87 542.031C809.105 548.945 807.842 556.397 803.481 562.066C799.801 566.852 794.279 570.342 788.203 571.018C782.597 571.643 778.093 570.16 772.978 568.09L771.93 567.418L771.473 567.185C765.57 563.977 761.381 559.008 759.48 552.564L759.25 551.763C757.809 546.887 758.183 540.733 760.223 536.045C763.379 528.788 768.2 523.2 775.692 520.331L776.108 520.124Z"/>
	<path fill="#DC9F72" d="M953.787 520.695C959.26 520.937 964.111 522.029 968.941 524.743C975.974 528.694 980.392 534.548 982.691 542.25L983.136 543.766C984.471 549.369 982.942 556.227 979.922 561.039C975.277 568.439 967.116 571.964 958.948 573.864C952.802 575.426 944.836 574.601 939.411 571.228C933.25 567.398 931.005 561.419 929.346 554.75L928.691 551.75C927.659 544.044 930.333 535.961 935.125 529.951C939.954 523.895 946.337 521.51 953.787 520.695Z"/>
	<path fill="#2A130E" d="M861.68 522.669C863.846 522.307 866.304 522.336 868.5 522.291C873.357 522.193 883.011 521.928 886.397 525.57C888.053 527.35 888.622 529.873 888.502 532.25C888.364 534.985 886.847 537.925 884.304 539.148C882.744 539.898 880.744 540.228 879.562 541.544C877.931 543.36 878.548 547.246 878.398 549.554C877.834 558.251 877.305 566.746 877.472 575.476C886.519 574.071 895.55 572.51 903.165 567.037C906.42 564.697 909.585 560.481 913.499 559.369C915.796 558.716 918.128 558.84 920.162 560.173C922.018 561.389 923.636 563.782 923.923 566C924.32 569.074 923.732 571.286 921.985 573.774C913.874 585.329 899.078 590.626 885.756 592.847C877.315 593.75 868.384 595.059 860.006 593.318C853.346 591.934 847.288 588.998 841.279 585.907C834.721 582.533 827.956 579 824.022 572.408C822.816 570.386 822.255 568.155 822.827 565.844C823.357 563.703 824.804 561.747 826.764 560.689C832.594 557.544 840.623 566.026 845.55 568.64C849.638 570.808 853.838 572.186 858.266 573.479C859.557 570.179 859.529 565.322 859.979 561.711L861.627 548.563C861.81 546.942 862.292 544.824 862.145 543.25C861.808 539.634 854.626 540.106 852.135 538.269C850.61 537.145 849.326 535.343 849.04 533.451C848.656 530.905 848.971 528.417 850.582 526.356C852.796 523.525 858.287 523.203 861.68 522.669Z"/>
	<path fill="#030305" d="M0 362.084C8.25628 361.927 15.9037 362.329 23.7988 365.018C26.7691 366.03 29.5408 367.588 32.3251 369.015C32.9457 369.334 34.4721 370.243 35.166 370.221C37.0717 370.16 66.9005 347.982 71.8754 344.993C88.2352 335.165 106.882 329.873 125.735 327.622C134.407 326.587 143.44 325.23 152.172 325.635C188.388 327.313 224.4 347.248 250.19 372.035C262.192 383.57 272.532 396.533 280.537 411.165C283.646 416.849 285.951 423.721 289.522 428.99C290.728 429.894 290.848 431.103 291.334 432.507C292.841 436.861 293.686 441.324 295.007 445.731C295.623 447.786 297.004 450.325 297.28 452.385L297.298 453.193C299.683 456.178 301.204 459.592 303.157 462.849C305.818 467.287 308.915 471.548 312.217 475.532C321.543 485.977 331.863 494.519 344.243 501.143C346.833 502.529 349.749 504.355 352.545 505.144C356.895 505.645 361.466 507.964 365.677 509.308C367.579 509.915 370.501 510.229 372.023 511.491L372.488 512.095C369.775 513.061 369.265 513.737 367.977 516.427C361.368 530.223 351.253 541.713 336.461 546.94C332.916 548.192 329.484 549.067 325.75 549.518C311.053 551.292 292.24 547.326 280.323 538.182L274.669 533.207L253.807 553.059L289.897 563.264L305.307 568.709C306.896 569.344 310.79 571.518 312.405 571.478C313.393 571.453 315.849 570.238 316.753 569.745L319.519 568.039C319.572 569.262 319.512 569.997 320.25 571.029C324.662 571.014 329.187 570.168 333.606 569.854C343.515 569.151 351.625 570.055 360.51 574.646C367.27 577.673 372.529 581.583 376.478 588C377.403 589.504 378.35 591.994 379.71 593.061C382.198 591.34 384.661 589.446 387.452 588.246L387.621 589.25C384.678 591.164 381.566 592.978 378.75 595.068L367.033 604.069C365.537 605.182 363.66 606.888 361.762 607.104C357.434 612.414 351.22 617.414 345.623 621.412C344.263 622.67 342.951 623.477 341.321 624.349C340.325 625.991 338.391 627.152 336.894 628.323L327.17 635.906C324.988 637.62 322.197 640.455 319.712 641.574L304.698 653.964C308.106 654.758 311.734 655.343 314.951 656.739C318.186 658.143 321.304 660.257 324.633 661.336L337.675 667.339C343.517 670.071 349.103 672.501 354.343 676.326C357.514 678.756 362.013 684.041 362.991 687.995C364.193 692.853 365.497 697.59 365.895 702.603L365.966 703.563C372.281 702.662 377.223 704.34 383.284 705.875C383.058 694.964 383.903 683.211 391.856 674.912C401.219 665.142 417.546 665.297 430.173 664.92C431.96 665.258 433.859 664.562 435.75 664.485L449.854 663.985C452.04 663.983 455.51 664.676 457.379 663.672L464.882 663.524L561.444 663.925L584.348 664.855C589.04 665.157 594.083 665.138 598.705 665.917C602.459 666.549 606.106 667.714 609.828 668.485C612.476 669.033 615.045 671.338 617.211 672.906C619.527 669.171 623.349 665.627 626.246 662.272L642.633 642.607L655.568 626.232C657.711 623.5 659.736 619.806 662.688 617.996C665.182 621.329 667.681 624.632 670.524 627.68C673.656 631.038 677.637 634.04 679.979 638L692.858 659.639C694.497 662.397 696.86 665.385 697.918 668.358L711 666.353C713.379 666.09 716.718 666.342 718.876 665.699L727.31 665.33L746.74 666.194C761.337 668.708 777.563 671.351 790.311 679.302C795.151 677.857 799.772 675.538 803.93 672.684C808.432 669.593 811.593 666.547 816.824 664.571C818.471 664.596 819.959 664.583 821.541 665.079C824.55 663.671 827.46 661.859 830.133 659.893C830.929 658.394 832.282 656.709 831.944 655.044C832.472 652.867 848.241 641.507 851.029 639.119C855.429 638.013 858.392 635.092 861.788 632.269L872.075 623.763L912.178 591.14C916.323 588.345 921.721 584.891 926.895 586.148C935.649 588.273 942.28 600.203 946.843 607.188L953.988 618.363C958.055 623.209 960.748 629.155 964.093 634.513L978.113 656.934L984.414 667.709C985.669 669.852 987.343 673.692 989.974 674.333C991.86 674.791 994.254 674.589 996.191 674.569C1003.74 674.49 1010.84 672.922 1017.11 668.537C1019.59 666.8 1021.85 664.69 1024 662.57L1024 686.679L1024 742.064L1024 761.356L1024 841.229L1024 861.055L1024 1024L-0 1024L0 845.879L0 844.373L0 824.998L0 743.097L0 720.986L0 667.219L0 587.872L0 493.596L0 424.67L0 393.155L0 380.076L0 362.084Z"/>
	<path fill="#2A130E" d="M816.824 664.571C818.471 664.596 819.959 664.583 821.541 665.079C814.99 668.643 808.104 672.589 801.918 676.75C799.352 678.476 797.072 680.647 794.509 682.315L790.311 679.302C795.151 677.857 799.772 675.538 803.93 672.684C808.432 669.593 811.593 666.547 816.824 664.571Z"/>
	<path fill="#393B45" d="M158.154 397.704C165.6 399.26 174.204 399.577 181.332 401.949L182.142 402.214L164.711 408.583L158.154 397.704Z"/>
	<path fill="#B76A44" d="M650.06 891.891L650.755 901.54L650.294 903.788C645.263 904.57 639.61 903.819 634.479 903.913C633.87 902.176 633.772 900.271 633.088 898.546C632.218 896.353 630.281 894.194 628.867 892.303C631.152 892.885 633.198 892.481 635.519 892.421L650.06 891.891Z"/>
	<path fill="#393B45" d="M71.0523 368.813C74.2477 370.638 77.4393 372.291 80.8354 373.717C83.7603 374.945 86.6831 375.8 89.36 377.57C75.086 380.444 62.7436 385.528 49.2902 390.76C51.6176 387.749 54.5613 385.285 57.1654 382.518C61.792 377.602 65.652 372.946 71.0523 368.813Z"/>
	<path fill="#DC9F72" d="M289.084 502.564C289.679 502.322 290.917 501.614 291.5 501.582C295.003 501.391 300.815 504.14 304.359 505.182C302.427 506.645 300.846 512.057 299.75 514.367C298.016 518.022 296.064 521.659 293.884 525.064C289.892 522.798 286.796 520.145 283.733 516.75C285.073 512.004 287.74 507.763 288.972 503.024L289.084 502.564Z"/>
	<path fill="#2A130E" d="M650.755 901.54C651.051 902.736 651.025 903.393 650.915 904.589C650.433 909.84 651.918 916.678 652.477 921.978L635.327 921.413C635.727 917.594 636.519 913.092 635.682 909.335L634.479 903.913C639.61 903.819 645.263 904.57 650.294 903.788L650.755 901.54Z"/>
	<path fill="#DC9F72" d="M297.298 453.193C299.683 456.178 301.204 459.592 303.157 462.849C305.818 467.287 308.915 471.548 312.217 475.532L309.137 488.752C304.779 487.47 296.826 486.426 294.228 482.635C295.184 476.912 295.042 470.533 295.286 464.73C295.464 460.48 295.374 457.098 297.298 453.193Z"/>
	<path fill="#DC9F72" d="M0 380.076L7.33329 379.96C12.3435 380.361 16.1637 381.09 20.7425 383.209C16.1316 390.845 11.1119 398.426 7.32694 406.51C4.5456 412.45 2.72559 418.767 0 424.67L0 393.155L0 380.076Z"/>
	<path fill="#FEE4B3" d="M0 380.076L7.33329 379.96L0 393.155L0 380.076Z"/>
	<path fill="#2A130E" d="M382.224 902.659C382.48 903.339 382.548 903.65 382.483 904.381C382.027 909.516 383.569 916.494 384.533 921.572L350.97 920.609L353.034 903.493L381.586 903.75L382.224 902.659Z"/>
	<path fill="#994D38" d="M289.084 502.564C289.083 499.381 290.368 495.838 291.235 492.796C292.202 489.403 293.025 485.954 294.228 482.635C296.826 486.426 304.779 487.47 309.137 488.752C313.95 490.208 322.962 491.702 325.711 496.367C326.821 498.249 327.033 500.489 326.428 502.575C325.818 504.681 324.375 506.285 322.448 507.311C317.185 510.111 309.61 506.817 304.359 505.182C300.815 504.14 295.003 501.391 291.5 501.582C290.917 501.614 289.679 502.322 289.084 502.564Z"/>
	<path fill="#F5C68D" d="M341.321 624.349C340.392 623.973 339.38 623.55 338.622 622.879C337.426 621.821 337.419 619.928 337.297 618.441C337.011 614.93 336.901 611.362 337.402 607.865C337.898 604.4 338.979 601.089 339.313 597.584C339.603 594.538 339.236 591.523 338.898 588.497C344.208 588.361 348.174 588.94 353.066 591.008C356.939 592.939 360.568 595.11 362.071 599.441C362.958 601.994 362.444 604.579 361.762 607.104C357.434 612.414 351.22 617.414 345.623 621.412C344.263 622.67 342.951 623.477 341.321 624.349Z"/>
	<path fill="#FEE4B3" d="M353.066 591.008C356.939 592.939 360.568 595.11 362.071 599.441C362.958 601.994 362.444 604.579 361.762 607.104C357.434 612.414 351.22 617.414 345.623 621.412C344.862 619.186 346.879 614.453 347.496 612C349.239 605.062 350.446 597.668 353.066 591.008Z"/>
	<path fill="#CA9268" d="M628.867 892.303C628.355 891.592 627.332 890.526 627.029 889.75C626.792 889.14 628.563 859.226 628.605 855.634C636.58 858.29 644.178 859.732 652.554 860.404C651.494 864.172 650.38 868.029 649.936 871.927C649.195 878.412 649.853 885.372 650.06 891.891L635.519 892.421C633.198 892.481 631.152 892.885 628.867 892.303Z"/>
	<path fill="#393B45" d="M221.452 404.876C223.677 404.201 226.394 404.688 228.722 404.666C234.157 404.615 239.692 404.242 245.116 404.574C248.68 404.792 252.88 405.792 256.359 404.95C271.842 425.283 280.969 452.749 277.65 478.374L276.639 483.656C275.449 478.353 274.708 472.977 273.167 467.759C265.962 443.35 251.562 423.672 230 410.016L221.452 404.876Z"/>
	<path fill="#FEE4B3" d="M312.217 475.532C321.543 485.977 331.863 494.519 344.243 501.143C346.833 502.529 349.749 504.355 352.545 505.144C349.741 514.76 343.913 522.33 335.027 527.143C331.207 529.213 327.541 530.435 323.25 531.066L322.344 531.216C313.223 532.605 301.863 529.526 293.884 525.064C296.064 521.659 298.016 518.022 299.75 514.367C300.846 512.057 302.427 506.645 304.359 505.182C309.61 506.817 317.185 510.111 322.448 507.311C324.375 506.285 325.818 504.681 326.428 502.575C327.033 500.489 326.821 498.249 325.711 496.367C322.962 491.702 313.95 490.208 309.137 488.752L312.217 475.532Z"/>
	<path fill="#887663" d="M246.112 680.851C246.034 667.612 244.682 652.987 247.64 640.056C249.526 638.271 251.013 637.812 253.652 637.668C261.499 637.237 269.87 639.826 277.771 640.43L319.712 641.574L304.698 653.964C300.016 652.381 297.794 653.488 293.205 654.529C290.661 655.107 287.989 655.526 285.626 656.673C280.612 659.106 275.745 662.425 270.927 665.245C262.493 670.182 253.786 674.759 246.112 680.851Z"/>
	<defs>
		<linearGradient id="gradient_4" gradientUnits="userSpaceOnUse" x1="361.89761" y1="890.28821" x2="373.04523" y2="847.28943">
			<stop offset="0" stop-color="#C97F52"/>
			<stop offset="1" stop-color="#D99D71"/>
		</linearGradient>
	</defs>
	<path fill="url(#gradient_4)" d="M354.559 882.237C354.688 874.555 355.458 866.675 355.035 859C354.89 856.383 353.462 853.82 353.591 851.25C353.763 847.837 355.281 843.927 356.057 840.535C357.806 843.071 359.333 845.387 361.833 847.25C363.628 848.588 365.52 850.254 367.576 851.163C372.376 853.286 379.137 854.352 384.328 855.056L385.771 863.331L385.533 863.683C382.254 868.735 380.974 878.475 381.067 884.477L382.224 902.659L381.586 903.75L353.034 903.493L354.559 882.237Z"/>
	<path fill="#B76A44" d="M354.559 882.237L354.832 883.103C355.348 884.884 355.231 886.913 355.25 888.755L357.5 888.75L357.625 886.693C357.913 888.263 357.777 889.062 359 890.135L372.422 890.912C375.051 891.085 378.401 891.716 380.964 891.264C380.922 889.019 380.756 886.703 381.067 884.477L382.224 902.659L381.586 903.75L353.034 903.493L354.559 882.237Z"/>
	<path fill="#393B45" d="M310.666 590.73C314.288 592.224 320.442 594.001 323.25 596.62C321.794 600.956 320.14 605.312 319.637 609.885C319.389 612.136 320.082 621.959 319.123 623.102L295.027 622.71L272.025 621.903L257.306 620.125C254.387 619.698 251.414 618.962 248.453 619.165C244.261 619.453 239.1 621.253 236.081 624.25C233.988 626.327 231.477 630.913 230.696 633.791C229.611 637.791 229.878 642.674 229.773 646.812L229.001 672.302C226.355 671.162 223.681 670.543 220.885 669.898L217.35 617.25C217.291 613.977 218.02 611.243 220.421 608.921C222.726 606.692 225.803 605.595 229 605.979C231.498 606.28 234.083 607.402 236.5 608.142C242.746 610.054 249.274 612.476 255.622 613.88C261.29 615.133 267.343 614.995 273.126 615.124L301.47 615.402L310.666 590.73Z"/>
	<path fill="#DC9F72" d="M617.211 672.906C619.527 669.171 623.349 665.627 626.246 662.272L642.633 642.607L655.568 626.232C657.711 623.5 659.736 619.806 662.688 617.996C665.182 621.329 667.681 624.632 670.524 627.68C673.656 631.038 677.637 634.04 679.979 638L692.858 659.639C694.497 662.397 696.86 665.385 697.918 668.358C687.188 670.884 675.692 672.846 665.524 677.139C652.177 682.774 641.286 694.265 633.869 706.426C631.148 710.889 629.237 715.607 627.818 720.623C627.694 705.71 631.145 685.887 619.077 674.405L617.211 672.906Z"/>
	<path fill="#46454A" d="M71.0523 368.813C79.7816 362.462 89.3846 358.144 99.2394 353.856C104.611 351.518 109.945 348.847 115.455 346.861C122.696 344.251 129.795 342.786 137.406 341.787C167.985 337.772 201.961 354.289 225.364 372.647C237.073 381.831 247.854 392.714 256.359 404.95C252.88 405.792 248.68 404.792 245.116 404.574C239.692 404.242 234.157 404.615 228.722 404.666C226.394 404.688 223.677 404.201 221.452 404.876C217.989 403.595 214.599 401.999 211 401.128C201.41 398.81 191.607 399.908 182.142 402.214L181.332 401.949C174.204 399.577 165.6 399.26 158.154 397.704C155.841 395.06 153.361 392.307 150.607 390.122C133.096 376.225 110.651 375.182 89.36 377.57C86.6831 375.8 83.7603 374.945 80.8354 373.717C77.4393 372.291 74.2477 370.638 71.0523 368.813Z"/>
	<path fill="#FEFEFE" d="M688.114 790.235L815.109 791.547C815.872 792.692 812.828 826.452 812.528 830.443L781.454 831.87L757.171 832.077C754.033 832.091 749.185 831.449 746.25 832.457L745.677 835.044L741.564 862.669L691.304 862.638L691.306 832.189L643.836 830.424L643.795 791.543L688.114 790.235Z"/>
	<path fill="#FEFEFE" d="M679.249 871.063L741.551 871.073L744.219 899.995L881.178 902.685L878.239 940.807L684.652 941.133C682.6 930.749 681.493 920.097 680.551 909.564C679.413 896.854 678.623 883.824 679.249 871.063Z"/>
	<path fill="#FEFEFE" d="M199.21 855.275L325.724 857.928C325.548 887.374 323.587 917.299 317.299 946.13L266.375 946.095L258.826 946.108L255.904 897.136L147.024 893.48L141.532 858.212C144.9 856.927 150.145 857.22 153.82 856.974L199.21 855.275Z"/>
	<path fill="#FEFEFE" d="M722.522 694.71L723.5 694.612C740.714 693.463 767.487 695.948 780.618 708.276C789.079 716.219 793.259 728.334 793.559 739.775C793.836 750.345 791.872 761.908 784.078 769.707C779.771 774.016 773.856 776.049 768.126 777.696C753.93 781.777 738.373 783.268 723.625 783.583C709.013 783.884 694.465 783.519 680.156 780.29C674.303 778.969 667.355 776.884 662.698 772.897C656.259 767.382 653.499 757.927 652.856 749.736C651.879 737.301 655.579 723.905 663.804 714.369C677.659 698.306 702.687 696.168 722.522 694.71Z"/>
	<path fill="#030305" d="M722.809 725.211C727.597 724.814 736.087 724.974 739.963 728.109C742.804 730.407 744.455 734.948 744.805 738.5C745.159 742.086 744.272 745.96 741.91 748.747C737.985 753.377 728.21 753.435 722.624 753.809C716.839 753.996 708.143 754.372 703.43 750.569C701.221 748.787 700.23 746.287 699.919 743.527C699.452 739.383 700.676 734.464 703.399 731.254C707.656 726.237 716.73 725.715 722.809 725.211Z"/>
	<path fill="#FEFEFE" d="M299.442 682.399C302.951 682.427 331.19 696.687 336.46 699.145L336.991 735.858L371.658 732.371L368.615 789.013L333.863 788.998L327.999 834.614L324.972 847.822L269.72 847.818C271.997 817.538 271.658 787.07 270.519 756.75C269.833 738.499 268.763 720.172 265.763 702.135L299.442 682.399Z"/>
	<path fill="#FEFEFE" d="M850.044 682.395C852.535 682.264 857.387 685.288 859.744 686.394L886.827 699.08C887.443 702.453 887.323 706.105 887.504 709.538L888.097 734.466L885.376 820.016C883.635 842.637 881.157 865.477 875.441 887.475L820.409 887.45L820.727 876.128L805.122 877.352L763.468 880.695L763.469 839.558L821.488 839.548L816.413 702.048L850.044 682.395Z"/>
	<path fill="#FEFEFE" d="M471.25 692.724L598.737 695.106L593.347 775.427L539.58 777.641L417.901 775.398L412.487 695.085L471.25 692.724Z"/>
	<path fill="#030305" d="M472.493 721.493L538.746 723.589L540.042 748.979L473.052 746.461L472.493 721.493Z"/>
	<path fill="#FEFEFE" d="M178.85 694.204C195.62 693.096 214.141 694.826 228.336 704.686C238.661 711.858 243.735 723.522 245.817 735.631C248.143 749.159 247.205 766.449 238.973 777.937C231.539 788.313 215.052 791.207 203.27 793.198L204.064 803.912L264.54 805.705L261.79 843.028C256.499 843.783 250.948 843.664 245.607 843.903L194.064 844.561L103.833 843.08L103.8 805.683L153.046 804.264L153.121 803.617C153.247 802.471 153.975 795.215 153.614 794.583C153.528 794.431 128.188 791.703 120.135 780.894C113.498 771.987 111.99 756.626 113.279 745.992C114.639 734.781 118.057 723.46 125.429 714.648C137.666 700.021 160.823 695.867 178.85 694.204Z"/>
	<path fill="#030305" d="M178.825 729.192C183.88 728.76 190.623 729.416 194.84 732.341C197.931 734.485 199.666 738.617 200.285 742.223C201.067 746.777 200.285 751.899 197.433 755.615C193.903 760.213 186.426 760.435 181.125 760.996C175.553 761.306 166.493 761.685 161.933 758.131C159.341 756.11 158.228 752.877 157.823 749.718C157.307 745.692 158.459 740.234 160.977 737C165.413 731.302 172.08 730.016 178.825 729.192Z"/>
	<path fill="#46454A" d="M0 493.596C4.11667 504.004 8.85665 513.628 15.2502 522.844C30.0633 544.199 51.6794 559.54 75.3187 569.777C119.219 588.788 172.396 591.078 217.047 573.25L236.916 563.791C240.124 566.167 243.142 568.697 246.844 570.286C255.115 573.836 265.089 575.279 273.795 577.75C286.31 581.302 298.651 585.754 310.666 590.73L301.47 615.402L273.126 615.124C267.343 614.995 261.29 615.133 255.622 613.88C249.274 612.476 242.746 610.054 236.5 608.142C234.083 607.402 231.498 606.28 229 605.979C225.803 605.595 222.726 606.692 220.421 608.921C218.02 611.243 217.291 613.977 217.35 617.25L220.885 669.898C209.915 666.704 198.889 664.716 187.465 664.506L172.272 638.763L156.639 614.38C152.53 607.976 148.641 600.839 143.828 594.967C141.258 591.832 138.212 588.693 134.5 586.96L133.922 586.682C131.479 585.558 128.614 585.286 126.074 586.25C122.483 587.614 118.278 590.223 115.135 592.499C100.68 602.964 86.9847 615.176 73.0846 626.405L50.9988 644.335C46.9248 647.653 42.4978 650.83 38.75 654.512C37.0249 656.207 35.3723 658.225 34.4542 660.484C32.926 664.245 33.4606 668.936 33.4613 672.947C33.4639 689.537 35.2339 705.721 36.9875 722.198L0 720.986L0 667.219L0 587.872L0 493.596Z"/>
	<path fill="#030305" d="M0 587.872C4.32662 594.081 9.07411 599.971 14.5157 605.247C14.4354 612.092 13.9891 619.31 12.3959 626C11.2885 630.651 9.5408 635.259 8.25 639.881L0 667.219L0 587.872Z"/>
	<path fill="#2A130E" d="M0 720.986L36.9875 722.198C35.2339 705.721 33.4639 689.537 33.4613 672.947C33.4606 668.936 32.926 664.245 34.4542 660.484C35.3723 658.225 37.0249 656.207 38.75 654.512C42.4978 650.83 46.9248 647.653 50.9988 644.335L73.0846 626.405C86.9847 615.176 100.68 602.964 115.135 592.499C118.278 590.223 122.483 587.614 126.074 586.25C128.614 585.286 131.479 585.558 133.922 586.682L134.5 586.96C138.212 588.693 141.258 591.832 143.828 594.967C148.641 600.839 152.53 607.976 156.639 614.38L172.272 638.763L187.465 664.506L167.453 666.121C146.083 670.823 123.803 674.623 107.662 690.759C103.149 695.27 99.1931 701.09 95.7636 706.466C91.3044 713.456 89.2714 721.034 87.3511 729.002C84.2062 742.052 82.0924 753.913 85.1557 767.266L88.6109 781.427C82.325 785.363 78.2506 790.446 76.5702 797.715C75.9304 800.483 74.9078 803.232 74.6316 806.064C74.0684 811.839 74.4628 817.965 74.5046 823.774C74.5488 829.918 74.1271 836.292 74.6067 842.405C74.7992 844.859 75.6367 847.517 76.2012 849.932C76.7526 852.29 77.1353 854.854 78.4293 856.925C81.0354 861.095 83.64 864.035 87.6224 866.935C93.9328 871.145 103.084 872.236 110.536 872.933L114.25 873.088C115.399 875.434 115.46 878.398 115.826 880.963C116.612 886.48 117.194 892.401 118.854 897.713C119.286 899.672 119.613 901.752 120.296 903.637C121.728 910.188 127.6 915.435 133.013 918.912C134.515 919.877 136.36 920.355 138.078 920.775C139.453 921.111 138.563 920.818 139.675 921.416C141.11 922.187 142.723 922.057 144.281 922.401L66.4987 919.347C63.2399 915.561 61.5522 911.787 60.1816 907.041C58.0977 899.825 57.6562 891.513 56.7255 884.052L53.0448 855.43C52.7702 852.978 52.8794 847.706 51.4526 845.75C48.5959 844.376 43.9034 845.007 40.7077 845.047L0 844.373L0 824.998L0 743.097L0 720.986Z"/>
	<path fill="#B76A44" d="M31.8901 743.59C34.1557 743.668 36.8836 743.387 38.8158 744.684C40.2505 746.971 40.2615 749.767 40.5688 752.398L42.0892 765.087L49.4845 824.997L30.6329 825L31.8901 743.59Z"/>
	<path fill="#DC9F72" d="M0 743.097L31.8901 743.59L30.6329 825L0 824.998L0 743.097Z"/>
	<path fill="#DC9F72" d="M75.4442 881.814C74.3008 878.081 74.3142 873.386 73.774 869.504L68.8408 830.5L60.7247 768.562L55.6585 733.284C53.1332 711.455 51.8318 689.456 51.853 667.485C54.6353 664.523 58.0637 662.188 61.2607 659.696L76.0061 647.999L113.497 615.755L123.248 606.683C124.142 605.86 125.936 603.916 127 603.507C127.553 603.295 128.167 603.301 128.75 603.198C130.801 604.71 131.848 606.91 133.128 609.059L139.124 619.012L167.453 666.121C146.083 670.823 123.803 674.623 107.662 690.759C103.149 695.27 99.1931 701.09 95.7636 706.466C91.3044 713.456 89.2714 721.034 87.3511 729.002C84.2062 742.052 82.0924 753.913 85.1557 767.266L88.6109 781.427C82.325 785.363 78.2506 790.446 76.5702 797.715C75.9304 800.483 74.9078 803.232 74.6316 806.064C74.0684 811.839 74.4628 817.965 74.5046 823.774C74.5488 829.918 74.1271 836.292 74.6067 842.405C74.7992 844.859 75.6367 847.517 76.2012 849.932C76.7526 852.29 77.1353 854.854 78.4293 856.925C81.0354 861.095 83.64 864.035 87.6224 866.935C93.9328 871.145 103.084 872.236 110.536 872.933L114.25 873.088C115.399 875.434 115.46 878.398 115.826 880.963C116.612 886.48 117.194 892.401 118.854 897.713C119.286 899.672 119.613 901.752 120.296 903.637C117.37 904.453 113.684 903.936 110.615 903.871L92.1095 903.594C88.1491 903.593 83.3151 904.129 79.5 903.131C79.1185 902.778 78.6353 902.51 78.3554 902.072C77.6391 900.951 77.5216 898.351 77.3327 897.037L75.4442 881.814Z"/>
	<path fill="#D2743F" d="M87.6224 866.935C93.9328 871.145 103.084 872.236 110.536 872.933L114.25 873.088C115.399 875.434 115.46 878.398 115.826 880.963C116.612 886.48 117.194 892.401 118.854 897.713C119.286 899.672 119.613 901.752 120.296 903.637C117.37 904.453 113.684 903.936 110.615 903.871L92.1095 903.594C88.1491 903.593 83.3151 904.129 79.5 903.131C79.1185 902.778 78.6353 902.51 78.3554 902.072C77.6391 900.951 77.5216 898.351 77.3327 897.037L75.4442 881.814L76.4728 883.261C76.6013 885.061 77.1168 886.636 77.0275 888.449L77.0002 889.75C77.634 891.836 77.3065 889.484 77.5452 891.333L77.9165 894.535C78.0475 895.995 78.4855 897.396 78.5874 898.814C78.6843 900.164 78.7911 900.814 79.5233 902.028C80.3504 902.376 80.9821 902.602 81.8873 902.693L84 902.878C86.3404 903.199 89.4435 903.26 91.75 902.755L91.755 900.25C90.9027 899.398 91.255 897.938 91.255 896.75C90.4974 895.614 90.755 894.587 90.755 893.25C89.9974 892.114 90.255 891.087 90.255 889.75C89.544 888.684 89.755 887.994 89.755 886.75C89.044 885.684 89.255 884.994 89.255 883.75C88.3794 882.437 89.103 881.851 88.755 880.5C87.7905 876.754 87.5577 871.516 87.6098 867.565L87.6224 866.935Z"/>
	<path fill="#B76A44" d="M118.854 897.713C119.286 899.672 119.613 901.752 120.296 903.637C117.37 904.453 113.684 903.936 110.615 903.871L92.1095 903.594L92.255 900.25L92.7704 900.193L93 902.5C94.0408 903.286 95.8053 903.017 97.0778 903.021L110.75 902.755C110.492 901.511 110.543 900.26 110.25 899C107.4 899.003 103.046 898.448 100.375 899.125C99.057 899.459 98.3523 899.424 97.0035 899.327L97.5 898.755C98.6429 897.772 104.49 898.255 106.25 898.255L106.75 897.755C108.141 897.707 109.441 897.889 110.812 898.082C113.195 898.619 116.405 897.929 118.854 897.713Z"/>
	<path fill="#CA9268" d="M110.536 872.933L114.25 873.088C115.399 875.434 115.46 878.398 115.826 880.963C116.612 886.48 117.194 892.401 118.854 897.713C116.405 897.929 113.195 898.619 110.812 898.082C110.294 891.555 108.757 884.639 107.503 878.2C107.241 876.858 106.518 875.873 106.328 874.516L106.255 873.75L105.502 873.089C107.162 873.183 108.873 873.015 110.536 872.933Z"/>
	<path fill="#FEFEFE" d="M478.344 784.742L630.725 786.996L630.757 825.296L535.117 827.629L534.32 836.347L598.539 838.921C599.297 839.955 599.057 844.306 599.112 845.738C599.809 863.964 598.53 882.213 596.384 900.305L476.843 903.537L477.261 909.43L606.857 910.85L604.29 941.105L539.677 943.709L482.586 943.731L428.131 941.92C425.907 941.751 419.523 941.934 417.897 940.801C412.961 920.079 410.549 899.865 410.433 878.567L533.939 875.869L533.351 870.362L416.405 868.998L410.265 839.089C418.299 837.7 427.514 837.847 435.693 837.581L477.108 836.496L476.367 827.649L380.462 825.274L380.471 786.997L478.344 784.742Z"/>
	<path fill="#2A130E" d="M872.075 623.763L912.178 591.14C916.323 588.345 921.721 584.891 926.895 586.148C935.649 588.273 942.28 600.203 946.843 607.188L953.988 618.363C958.055 623.209 960.748 629.155 964.093 634.513L978.113 656.934L984.414 667.709C985.669 669.852 987.343 673.692 989.974 674.333C991.86 674.791 994.254 674.589 996.191 674.569C1003.74 674.49 1010.84 672.922 1017.11 668.537C1019.59 666.8 1021.85 664.69 1024 662.57L1024 686.679L1024 742.064L1024 761.356L1024 841.229L1024 861.055L988.066 860.361C983.181 860.302 978.105 859.784 973.25 860.023C972.529 860.058 971.555 860.219 971.052 860.772C969.457 862.525 969.237 866.625 968.838 868.959L965.611 890.521L962.633 908.127C962.288 910.694 963.21 914.314 961.669 916.516C959.036 920.279 954.831 921.31 950.513 921.897L948.177 922.222C943.692 922.879 938.865 922.524 934.338 922.472L908.958 921.949L910.551 903.987C909.488 898.866 908.628 891.841 905.682 887.551L905.343 887.071C905.124 883.898 906.729 878.181 907.844 875.176L912.75 841.295C916.362 807.661 917.551 773.747 917.492 739.938L916.969 713.419C916.59 704.344 916.064 695.813 913.312 687.081C912.785 685.409 911.387 683.751 910.364 682.346C904.252 673.949 894.993 670.523 885.894 666.286C878.164 662.676 869.799 657.861 861.641 655.458C857.923 654.587 852.457 652.413 848.75 653.351C845.041 654.29 840.759 654.713 837.245 656.137C834.756 657.146 832.679 659.006 830.133 659.893C830.929 658.394 832.282 656.709 831.944 655.044C832.472 652.867 848.241 641.507 851.029 639.119C855.429 638.013 858.392 635.092 861.788 632.269L872.075 623.763Z"/>
	<path fill="#B76A44" d="M990.78 840.9L973.312 840.402L981.719 785.387L983.909 770.141C984.315 767.357 984.438 764.183 985.63 761.62C987.422 760.405 988.46 760.586 990.59 760.465C985.022 786.29 987.872 813.505 985.936 839.75C986.969 840.902 989.231 840.501 990.78 840.9Z"/>
	<path fill="#CA9268" d="M861.641 655.458L900.588 622.903C907.42 616.83 913.95 610.009 921.01 604.251C921.937 603.495 922.566 603.274 923.75 603.245C926.289 605.112 927.951 608.754 929.556 611.457C925.747 615.364 922.863 620.047 919.578 624.383L904.179 644.201L892.918 657.895C890.591 660.611 887.864 663.309 885.894 666.286C878.164 662.676 869.799 657.861 861.641 655.458Z"/>
	<path fill="#49EDFD" d="M1024 742.064L988.428 742.069C988.386 737.972 989.135 733.79 989.615 729.725L992.188 708.588C992.691 704.551 992.646 699.27 993.878 695.463C994.064 694.888 994.65 693.988 995.201 693.71C995.782 693.419 997.722 693.535 998.5 693.476C1001.39 693.257 1004.3 693.078 1007.14 692.495C1013.2 691.254 1018.39 689.279 1024 686.679L1024 742.064Z"/>
	<path fill="#D2743F" d="M907.844 875.176L908.202 875.513C908.467 878.968 905.824 883.067 906.232 886.051C906.401 887.287 907.462 888.289 908.217 889.223L922.75 889.255C924.123 890.161 930.377 890.061 932.25 889.755L932.503 888.503C932.757 887.672 932.919 887.655 932.84 886.687L932.755 886C933.431 884.982 933.252 884.684 933.255 883.5C933.96 882.439 933.752 881.737 933.755 880.5L934.25 879.755L934.429 878.5C935.771 874.733 936.416 870.707 937.221 866.728L941.528 843.672L962.196 717.75L965.495 698.327L966.385 691.176L967.494 685.327L967.594 683.5C967.779 682.327 968.03 679.258 968.75 678.5L969.115 679.337L970.341 679.79C973.995 683.989 976.404 689.046 975.976 694.677C975.424 701.939 973.881 709.377 972.872 716.604L970.252 740.904L965.614 766.432L957.153 822.25L953.668 846.215L947.097 880.847C945.667 888.019 943.414 895.632 943.25 902.951C942.472 903.98 942.075 904.288 940.75 904.409L910.551 903.987C909.488 898.866 908.628 891.841 905.682 887.551L905.343 887.071C905.124 883.898 906.729 878.181 907.844 875.176Z"/>
	<path fill="#DC9F72" d="M990.59 760.465L1024 761.356L1024 841.229L990.78 840.9C989.231 840.501 986.969 840.902 985.936 839.75C987.872 813.505 985.022 786.29 990.59 760.465Z"/>
	<path fill="#DC9F72" d="M929.556 611.457L970.341 679.79L969.115 679.337L968.75 678.5C968.03 679.258 967.779 682.327 967.594 683.5L967.494 685.327L966.385 691.176L965.495 698.327L962.196 717.75L941.528 843.672L937.221 866.728C936.416 870.707 935.771 874.733 934.429 878.5L934.25 879.755L933.755 880.5C933.752 881.737 933.96 882.439 933.255 883.5C933.252 884.684 933.431 884.982 932.755 886L932.84 886.687C932.919 887.655 932.757 887.672 932.503 888.503L932.25 889.755C930.377 890.061 924.123 890.161 922.75 889.255L908.217 889.223C907.462 888.289 906.401 887.287 906.232 886.051C905.824 883.067 908.467 878.968 908.202 875.513L907.844 875.176L912.75 841.295C916.362 807.661 917.551 773.747 917.492 739.938L916.969 713.419C916.59 704.344 916.064 695.813 913.312 687.081C912.785 685.409 911.387 683.751 910.364 682.346C904.252 673.949 894.993 670.523 885.894 666.286C887.864 663.309 890.591 660.611 892.918 657.895L904.179 644.201L919.578 624.383C922.863 620.047 925.747 615.364 929.556 611.457Z"/>
	<path fill="#FEE4B3" d="M76.9294 550.382C72.9959 549.005 69.0733 546.523 65.5056 544.389C52.3019 536.491 41.0818 526.512 31.7659 514.27C27.7251 508.96 24.0889 503.479 21.516 497.3C16.8152 486.012 16.9477 473.538 18.6121 461.625C19.9571 451.998 21.5746 439.364 27.153 431.155C31.1342 425.297 38.4553 419.724 44.0902 415.501C59.1515 404.215 76.059 397.471 94.6924 395.238C100.458 394.547 106.95 394.087 112.72 394.926C122.732 395.441 135.602 399.32 142.558 406.966C144.569 409.176 146.276 411.749 147.448 414.5C149.706 419.799 150.798 429.367 157.926 430.101C162.628 430.585 168.119 425.99 172.25 423.999C182.218 419.194 196.895 416.391 207.723 419.383C218.7 422.415 231.122 432.568 238.478 440.925C252.322 456.652 259.132 478.37 257.675 499.225C256.857 510.936 253.454 522.024 247.329 532.082C245.695 534.765 244.258 537.474 241.851 539.57C239.122 541.947 235.643 543.742 232.594 545.693C204.797 563.477 169.426 569.701 136.843 566.918C119 565.394 101.038 561.173 84.578 554.079C82.3072 553.1 78.8496 551.935 76.9294 550.382Z"/>
	<path fill="#2A130E" d="M88.1343 439.085C89.9053 439.035 91.8422 439.144 93.5226 439.744C96.2706 440.726 98.6153 442.712 99.7623 445.435C100.869 448.064 100.939 452.764 99.8474 455.42L99.5887 456C97.7237 460.321 94.9104 462.921 90.573 464.716C88.5317 464.96 86.2308 464.861 84.2956 464.114C81.9442 463.205 80.0685 461.2 79.102 458.905C77.4938 455.085 77.5991 450.252 79.3923 446.51C81.2555 442.622 84.1363 440.422 88.1343 439.085Z"/>
	<path fill="#2A130E" d="M190.468 462.607C192.778 462.814 195.164 463.095 197.177 464.346C199.978 466.085 202.156 468.936 202.75 472.208C203.369 475.617 202.745 479.671 200.654 482.503C198.153 485.89 195.144 487.275 191.09 487.851C188.641 487.689 186.313 487.409 184.155 486.138C181.429 484.533 179.217 481.62 178.521 478.54C177.719 474.997 178.198 471.633 180.216 468.6C182.807 464.705 186.117 463.471 190.468 462.607Z"/>
	<path fill="#2A130E" d="M115.593 462.513C120.478 462.094 125.603 464.439 130.452 465.351L150.934 468.729C153.89 469.266 157.823 469.772 160.372 471.355C162.191 472.484 164.146 474.56 164.485 476.75C165.141 480.988 163.312 484.92 161.508 488.631C157.95 495.946 153.594 502.715 148.79 509.265C145.971 512.979 142.587 517.814 138.569 520.313C135.941 521.948 133.128 522.607 130.074 521.826C126.62 520.943 123.84 517.547 122.152 514.599C119.304 509.623 117.82 503.549 116.603 497.997L112.718 476.254C112.352 473.821 111.094 469.822 111.792 467.49L111.963 467C112.688 464.854 113.847 463.902 115.593 462.513Z"/>
	<path fill="#BB3343" d="M125.668 477.177L150.688 481.688L140.925 498.163L133.076 508.212C129.316 497.982 127.704 487.822 125.668 477.177Z"/>
	<path fill="#F5C68D" d="M212.275 487.192C216.569 486.785 221.367 487.137 225.549 488.21L226.5 488.458L227.451 488.693C233.786 490.301 239.371 493.366 242.679 499.235C245.514 504.266 245.84 511.127 244.332 516.669L244.096 517.5C243.162 520.889 241.992 524.018 240.099 527C235.05 534.957 228.337 538.475 219.386 540.553C216.207 541.156 212.383 541.256 209.2 540.699L208.5 540.567C204.353 539.83 199.941 538.345 196.457 535.886C190.891 531.957 186.771 525.246 185.824 518.511C184.811 511.309 188.106 502.769 192.607 497.25C197.825 490.853 204.243 488.092 212.275 487.192Z"/>
	<path fill="#F5C68D" d="M76.9294 550.382C72.9959 549.005 69.0733 546.523 65.5056 544.389C52.3019 536.491 41.0818 526.512 31.7659 514.27C27.7251 508.96 24.0889 503.479 21.516 497.3C16.8152 486.012 16.9477 473.538 18.6121 461.625C19.9571 451.998 21.5746 439.364 27.153 431.155C31.1342 425.297 38.4553 419.724 44.0902 415.501C59.1515 404.215 76.059 397.471 94.6924 395.238C100.458 394.547 106.95 394.087 112.72 394.926C110.764 395.013 106.49 394.747 105.13 395.943C102.359 398.379 97.1181 399.925 93.6568 401.297L75.312 408.707C71.6777 410.176 67.0228 411.648 63.8984 413.977C62.2901 415.176 60.8531 417.011 59.4945 418.501C55.2765 423.127 51.6493 428.043 48.3892 433.39C44.2373 440.199 39.7488 449.002 38.5004 456.914C45.3936 452.566 51.7373 449.795 60.0464 451.683C66.9147 453.244 73.6259 458.209 77.1858 464.279C80.5705 470.051 82.0568 476.738 80.2177 483.276C78.1871 490.495 73.3194 494.05 67.056 497.366C60.3404 500.92 53.2788 501.984 45.9214 499.668L40.0815 497.179C40.8625 501.133 42.1177 505.502 43.9836 509.076C46.3417 513.592 50.4398 518.024 53.577 522.049C58.6071 528.502 63.3921 535.104 68.847 541.213C71.0718 543.705 75.7879 547.393 76.9294 550.382Z"/>
	<path fill="#FAB383" d="M37.4577 457.657C38.065 459.685 37.0386 462.269 36.6321 464.379C35.9976 467.672 35.481 471.034 35.4892 474.396C35.5013 479.348 36.9968 484.582 38.085 489.391C38.579 491.574 39.6695 494.327 39.2873 496.536C37.1399 494.974 34.9834 493.385 33.25 491.351C29.7039 487.189 27.6782 480.998 28.1014 475.536C28.6757 468.123 31.9397 462.441 37.4577 457.657Z"/>
	<defs>
		<linearGradient id="gradient_5" gradientUnits="userSpaceOnUse" x1="501.48965" y1="807.54919" x2="520.77344" y2="1061.6517">
			<stop offset="0" stop-color="#39A335"/>
			<stop offset="1" stop-color="#91DD5F"/>
		</linearGradient>
	</defs>
	<path fill="url(#gradient_5)" d="M0 844.373L40.7077 845.047C43.9034 845.007 48.5959 844.376 51.4526 845.75C52.8794 847.706 52.7702 852.978 53.0448 855.43L56.7255 884.052C57.6562 891.513 58.0977 899.825 60.1816 907.041C61.5522 911.787 63.2399 915.561 66.4987 919.347L144.281 922.401L228.472 925.484C228.522 936.108 229.492 946.651 232.262 956.921C233.953 963.192 240.052 968.734 245.591 971.75C248.989 973.6 256.121 974.886 260.001 975.339C267.424 976.205 275.828 975.474 283.339 975.469L304.962 975.437C309.952 975.455 315.397 975.958 320.253 974.641C323.363 973.798 327.072 973.447 329.984 972.103C331.932 971.204 333.774 969.756 335.479 968.465C338.629 966.081 342.024 961.987 343.574 958.342C344.771 955.53 345.255 951.832 345.936 948.836L350.97 920.609L384.533 921.572L389.25 943.561C389.974 946.725 390.419 950.643 391.776 953.532C392.856 955.832 394.774 958.226 396.409 960.178C402.718 967.709 413.195 969.824 422.545 970.779C437.328 972.291 452.387 972.407 467.24 972.726L539.253 973.011L581.357 971.912C588.405 971.585 595.721 971.491 602.688 970.386C610.88 969.087 617.201 967.643 623.659 962.25C634.467 953.223 634.059 934.305 635.327 921.413L652.477 921.978C653.593 930.28 654.7 938.536 656.636 946.694C657.228 949.19 657.68 952.269 658.856 954.555C660.487 957.725 663.403 961.208 666.225 963.343C667.895 964.607 669.957 966.304 671.893 967.087C676.325 968.878 682.505 969.883 687.296 970.562C700.746 972.467 714.98 972.359 728.553 972.658L796.669 973.088L847.343 972.072C856.504 971.731 866.006 971.623 875.089 970.369C884.046 969.132 894.377 967.001 900.154 959.359C901.58 957.472 903.249 955.425 904.288 953.298C905.28 951.268 905.652 948.408 906.142 946.198C907.929 938.136 908.24 930.154 908.958 921.949L934.338 922.472C938.865 922.524 943.692 922.879 948.177 922.222L950.513 921.897C954.831 921.31 959.036 920.279 961.669 916.516C963.21 914.314 962.288 910.694 962.633 908.127L965.611 890.521L968.838 868.959C969.237 866.625 969.457 862.525 971.052 860.772C971.555 860.219 972.529 860.058 973.25 860.023C978.105 859.784 983.181 860.302 988.066 860.361L1024 861.055L1024 1024L-0 1024L0 845.879L0 844.373Z"/>
	<path fill="#28982A" d="M0 844.373L40.7077 845.047C37.7647 846.214 35.0307 845.489 31.9725 845.543C27.3442 845.624 22.7032 845.897 18.0745 845.676C14.5648 845.51 10.5218 844.227 7.12819 845.876C5.59323 846.622 3.91629 846.876 2.25087 847.185L0 845.879L0 844.373Z"/>
</svg>
