<svg width="18" height="18" viewBox="0 0 18 18" fill="none" xmlns="http://www.w3.org/2000/svg">
<path d="M14.5251 7.59581C12.4926 9.30659 7.8002 10.0658 7.8002 10.0658C7.8002 10.0658 9.24985 5.42962 11.2824 3.71884C13.3149 2.00807 14.8869 2.16819 15.7831 3.23849C16.6793 4.30879 16.5576 5.88504 14.5251 7.59581Z" fill="#58B721"/>
<path d="M7.80019 10.2502C7.74182 10.25 7.68704 10.2219 7.65258 10.1747C7.61812 10.1274 7.60808 10.0665 7.62553 10.0107C7.9094 9.14287 8.23891 8.29078 8.61268 7.45796C9.44217 5.61069 10.3011 4.30809 11.164 3.57705C13.0532 1.98702 14.8326 1.81575 15.9237 3.1177C16.4253 3.69218 16.6149 4.47648 16.4314 5.21761C16.2351 6.05364 15.6359 6.90083 14.6435 7.73554C13.7807 8.46198 12.3696 9.10574 10.4503 9.64843C9.58719 9.89244 8.7123 10.0922 7.82897 10.2469C7.81951 10.249 7.80987 10.25 7.80019 10.2502ZM14.0947 2.61372C13.3057 2.61372 12.384 3.03173 11.4008 3.86054C9.72346 5.27208 8.42754 8.79272 8.07233 9.83218C9.13536 9.63137 12.7307 8.86818 14.4074 7.45665C15.3369 6.67443 15.8976 5.89418 16.0729 5.13755C16.2291 4.50889 16.068 3.84338 15.6418 3.35656C15.2264 2.86046 14.6998 2.61372 14.0947 2.61372Z" fill="#58B721"/>
<path d="M3.26087 8.17189C4.96499 9.6064 8.82135 10.3374 8.82135 10.3374C8.82135 10.3374 7.52151 6.54971 5.81738 5.11586C4.11326 3.68201 2.83173 3.77191 2.12588 4.61647C1.42002 5.46103 1.55674 6.73804 3.26087 8.17189Z" fill="#58B721"/>
<path d="M8.82071 10.5612C8.80666 10.5612 8.79265 10.5599 8.77884 10.5573C8.61922 10.5271 4.84529 9.79999 3.1163 8.34449C1.49853 6.98283 1.06416 5.5352 1.95384 4.47211C2.37447 3.96945 2.94884 3.73255 3.61609 3.78767C4.33111 3.84673 5.1207 4.23522 5.96196 4.94394C7.69356 6.40141 8.97902 10.1064 9.03266 10.2639C9.05672 10.3327 9.04594 10.4088 9.00377 10.4681C8.96159 10.5274 8.8933 10.5624 8.82071 10.5619V10.5612ZM3.4048 8.00194C4.73015 9.11752 7.45414 9.80655 8.46941 10.0362C8.09392 9.0519 6.99883 6.40797 5.67347 5.29239C4.90482 4.64536 4.20027 4.29165 3.58011 4.24244C3.05678 4.19912 2.62567 4.37368 2.29859 4.76741C1.57899 5.62772 1.98262 6.80827 3.40545 8.00653L3.4048 8.00194Z" fill="#58B721"/>
<path d="M9.28517 9.29608H7.64516V15.5591H9.28517V9.29608Z" fill="#58B721"/>
<path d="M9.28516 15.75H7.64515C7.54037 15.75 7.45544 15.6648 7.45544 15.5597V9.29605C7.45544 9.24558 7.47542 9.19717 7.511 9.16148C7.54658 9.12579 7.59483 9.10574 7.64515 9.10574H9.28516C9.33548 9.10574 9.38373 9.12579 9.41931 9.16148C9.45489 9.19717 9.47487 9.24558 9.47487 9.29605V15.5623C9.47344 15.6664 9.38892 15.75 9.28516 15.75ZM7.83486 15.3694H9.09545V9.48635H7.83486V15.3694Z" fill="#58B721"/>
</svg>
