<svg width="18" height="18" viewBox="0 0 18 18" fill="none" xmlns="http://www.w3.org/2000/svg">
<path d="M15.1752 1.5H2.8248C2.09313 1.5 1.5 2.09313 1.5 2.8248V15.1752C1.5 15.9069 2.09313 16.5 2.8248 16.5H15.1752C15.9069 16.5 16.5 15.9069 16.5 15.1752V2.8248C16.5 2.09313 15.9069 1.5 15.1752 1.5Z" fill="#77A9FC"/>
<path d="M12.4094 11.3575V13.5062H5.67V12.955C9.31625 8.65497 9.81812 7.95996 9.81812 7.18184C9.81812 6.69059 9.49437 6.36121 9.03 6.36121C8.52125 6.36121 8.21187 6.70434 8.21187 7.24934V7.42496H5.81625V7.25684C5.81625 5.42496 7.01687 4.21371 9.00375 4.21371C10.9256 4.21371 12.2537 5.39559 12.2537 7.09684C12.2537 8.23684 11.8319 9.11246 9.89312 11.3575H12.4094Z" fill="white"/>
</svg>
