<svg width="18" height="18" viewBox="0 0 18 18" fill="none" xmlns="http://www.w3.org/2000/svg">
<path d="M15.1752 1.5H2.8248C2.09313 1.5 1.5 2.09313 1.5 2.8248V15.1752C1.5 15.9069 2.09313 16.5 2.8248 16.5H15.1752C15.9069 16.5 16.5 15.9069 16.5 15.1752V2.8248C16.5 2.09313 15.9069 1.5 15.1752 1.5Z" fill="#88C86A"/>
<path d="M12.22 10.5537C12.22 12.3969 10.7919 13.7162 8.80312 13.7162C6.85625 13.7162 5.5175 12.445 5.46312 10.5694H7.78875C7.81625 11.2081 8.21312 11.6319 8.80937 11.6319C9.42875 11.6319 9.86312 11.1762 9.86312 10.5137C9.86312 9.85123 9.4125 9.4406 8.7075 9.4406H7.25625V8.93748L8.73187 6.51185H5.69062V4.44498H11.9081V4.86123L10.0894 7.7731C11.3887 8.09873 12.22 9.1506 12.22 10.5537Z" fill="white"/>
</svg>
